<svg width="65" height="64" viewBox="0 0 65 64" fill="none" xmlns="http://www.w3.org/2000/svg">
<g clip-path="url(#clip0_4_252)">
<mask id="mask0_4_252" style="mask-type:luminance" maskUnits="userSpaceOnUse" x="0" y="0" width="65" height="64">
<path d="M64.5 0H0.5V64H64.5V0Z" fill="white"/>
</mask>
<g mask="url(#mask0_4_252)">
<path d="M46.5 26H18.5C17.395 26 16.5 24.9558 16.5 23.6667V7.33333C16.5 6.04419 17.395 5 18.5 5H46.5C47.605 5 48.5 6.04419 48.5 7.33333V23.6667C48.5 24.9558 47.605 26 46.5 26Z" fill="#96D81C"/>
<path d="M17.0158 0.5H47.9835C50.5531 0.5 52.6448 2.59167 52.6448 5.16129V26.5953C52.6448 28.1856 52.2687 29.7814 51.557 31.2043C50.9188 32.4834 50.5803 33.9125 50.5803 35.3402V58.8387C50.5803 61.4083 48.4886 63.5 45.919 63.5H19.0803C16.5107 63.5 14.419 61.4083 14.419 58.8387V35.3402C14.419 33.9136 14.0808 32.4838 13.4424 31.2055C12.7306 29.7804 12.3545 28.1855 12.3545 26.5953V5.16129C12.3545 2.59167 14.4462 0.5 17.0158 0.5ZM50.6036 30.7301C51.242 29.4519 51.5803 28.0229 51.5803 26.5953V5.16129C51.5803 3.17799 49.9668 1.56452 47.9835 1.56452H17.0158C15.0325 1.56452 13.419 3.17799 13.419 5.16129V26.5953C13.419 28.0229 13.7573 29.4517 14.3956 30.7299C15.1073 32.1539 15.4835 33.7499 15.4835 35.3402V58.8387C15.4835 60.822 17.097 62.4355 19.0803 62.4355H45.919C47.9023 62.4355 49.5158 60.822 49.5158 58.8387V35.3402C49.5158 33.7499 49.8919 32.1541 50.6036 30.7301Z" fill="#322153" stroke="#322153"/>
<path d="M19.6133 57.8065V58.3065H20.1133H24.2444H24.7449L24.7444 57.806L24.7424 55.7415L24.7419 55.242H24.2424H20.1133H19.6133V55.742V57.8065ZM20.1133 54.1775H24.2424C25.1048 54.1775 25.8069 54.8795 25.8069 55.742V57.8065C25.8069 58.669 25.1048 59.371 24.2424 59.371H20.1133C19.2509 59.371 18.5488 58.669 18.5488 57.8065V55.742C18.5488 54.8795 19.2509 54.1775 20.1133 54.1775Z" fill="#322153" stroke="#322153"/>
<path d="M19.6133 49.5485V50.0485H20.1133H24.2444H24.7449L24.7444 49.548L24.7424 47.4835L24.7419 46.984H24.2424H20.1133H19.6133V47.484V49.5485ZM20.1133 45.9194H24.2424C25.1048 45.9194 25.8069 46.6215 25.8069 47.484V49.5485C25.8069 50.4109 25.1048 51.113 24.2424 51.113H20.1133C19.2509 51.113 18.5488 50.4109 18.5488 49.5485V47.484C18.5488 46.6215 19.2509 45.9194 20.1133 45.9194Z" fill="#322153" stroke="#322153"/>
<path d="M19.6133 41.2904V41.7904H20.1133H24.2444H24.7449L24.7444 41.2899L24.7424 39.2254L24.7419 38.7259H24.2424H20.1133H19.6133V39.2259V41.2904ZM20.1133 37.6614H24.2424C25.1048 37.6614 25.8069 38.3634 25.8069 39.2259V41.2904C25.8069 42.1529 25.1048 42.8549 24.2424 42.8549H20.1133C19.2509 42.8549 18.5488 42.1529 18.5488 41.2904V39.2259C18.5488 38.3634 19.2509 37.6614 20.1133 37.6614Z" fill="#322153" stroke="#322153"/>
<path d="M29.9356 57.8065V58.3065H30.4356H34.5667H35.0671L35.0667 57.806L35.0646 55.7415L35.0642 55.242H34.5646H30.4356H29.9356V55.742V57.8065ZM30.4356 54.1775H34.5646C35.4271 54.1775 36.1292 54.8795 36.1292 55.742V57.8065C36.1292 58.669 35.4271 59.371 34.5646 59.371H30.4356C29.5731 59.371 28.8711 58.669 28.8711 57.8065V55.742C28.8711 54.8795 29.5731 54.1775 30.4356 54.1775Z" fill="#322153" stroke="#322153"/>
<path d="M29.9356 49.5485V50.0485H30.4356H34.5667H35.0671L35.0667 49.548L35.0646 47.4835L35.0642 46.984H34.5646H30.4356H29.9356V47.484V49.5485ZM30.4356 45.9194H34.5646C35.4271 45.9194 36.1292 46.6215 36.1292 47.484V49.5485C36.1292 50.4109 35.4271 51.113 34.5646 51.113H30.4356C29.5731 51.113 28.8711 50.4109 28.8711 49.5485V47.484C28.8711 46.6215 29.5731 45.9194 30.4356 45.9194Z" fill="#322153" stroke="#322153"/>
<path d="M29.9356 41.2904V41.7904H30.4356H34.5667H35.0671L35.0667 41.2899L35.0646 39.2254L35.0642 38.7259H34.5646H30.4356H29.9356V39.2259V41.2904ZM30.4356 37.6614H34.5646C35.4271 37.6614 36.1292 38.3634 36.1292 39.2259V41.2904C36.1292 42.1529 35.4271 42.8549 34.5646 42.8549H30.4356C29.5731 42.8549 28.8711 42.1529 28.8711 41.2904V39.2259C28.8711 38.3634 29.5731 37.6614 30.4356 37.6614Z" fill="#322153" stroke="#322153"/>
<path d="M29.4034 29.4033H35.597C37.028 29.4033 38.1937 30.5691 38.1937 32.0001C38.1937 33.4311 37.028 34.5969 35.597 34.5969H29.4034C27.9724 34.5969 26.8066 33.4311 26.8066 32.0001C26.8066 30.5691 27.9724 29.4033 29.4034 29.4033ZM29.4034 33.5324H35.597C36.443 33.5324 37.1292 32.8445 37.1292 32.0001C37.1292 31.1557 36.443 30.4678 35.597 30.4678H29.4034C28.5574 30.4678 27.8712 31.1557 27.8712 32.0001C27.8712 32.8445 28.5574 33.5324 29.4034 33.5324Z" fill="#322153" stroke="#322153"/>
<path d="M40.2579 57.8065V58.3065H40.7579H44.8889H45.3894L45.3889 57.806L45.3869 55.7415L45.3864 55.242H44.8869H40.7579H40.2579V55.742V57.8065ZM40.7579 54.1775H44.8869C45.7494 54.1775 46.4514 54.8795 46.4514 55.742V57.8065C46.4514 58.669 45.7494 59.371 44.8869 59.371H40.7579C39.8954 59.371 39.1934 58.669 39.1934 57.8065V55.742C39.1934 54.8795 39.8954 54.1775 40.7579 54.1775Z" fill="#322153" stroke="#322153"/>
<path d="M40.2579 49.5485V50.0485H40.7579H44.8889H45.3894L45.3889 49.548L45.3869 47.4835L45.3864 46.984H44.8869H40.7579H40.2579V47.484V49.5485ZM40.7579 45.9194H44.8869C45.7494 45.9194 46.4514 46.6215 46.4514 47.484V49.5485C46.4514 50.4109 45.7494 51.113 44.8869 51.113H40.7579C39.8954 51.113 39.1934 50.4109 39.1934 49.5485V47.484C39.1934 46.6215 39.8954 45.9194 40.7579 45.9194Z" fill="#322153" stroke="#322153"/>
<path d="M40.2579 41.2904V41.7904H40.7579H44.8889H45.3894L45.3889 41.2899L45.3869 39.2254L45.3864 38.7259H44.8869H40.7579H40.2579V39.2259V41.2904ZM40.7579 37.6614H44.8869C45.7494 37.6614 46.4514 38.3634 46.4514 39.2259V41.2904C46.4514 42.1529 45.7494 42.8549 44.8869 42.8549H40.7579C39.8954 42.8549 39.1934 42.1529 39.1934 41.2904V39.2259C39.1934 38.3634 39.8954 37.6614 40.7579 37.6614Z" fill="#322153" stroke="#322153"/>
<path d="M42.8223 30.4678H42.3223V30.9678V33.0324V33.5324H42.8223H44.8868H45.3868V33.0324V30.9678V30.4678H44.8868H42.8223ZM46.4514 29.4033V34.5969H41.2578V29.4033H46.4514Z" fill="#322153" stroke="#322153"/>
<path d="M22.1779 33.5324H22.6779V33.0324V30.9678V30.4678H22.1779H20.1133H19.6133V30.9678V33.0324V33.5324H20.1133H22.1779ZM18.5488 29.4033H23.7424V34.5969H18.5488V29.4033Z" fill="#322153" stroke="#322153"/>
</g>
</g>
<defs>
<clipPath id="clip0_4_252">
<rect width="64" height="64" fill="white" transform="translate(0.5)"/>
</clipPath>
</defs>
</svg>
