<svg width="879" height="660" viewBox="0 0 879 660" fill="none" xmlns="http://www.w3.org/2000/svg">
<g clip-path="url(#clip0_4_271)">
<path opacity="0.5" fill-rule="evenodd" clip-rule="evenodd" d="M868.575 660H1.7691C-9.20578 512.198 136.512 419.063 215.68 368.462C225.965 361.889 235.126 356.033 242.675 350.869C275.763 328.232 300.299 278.801 326.394 226.228C374.47 129.372 427.837 21.8545 549.726 51.5907C656.889 77.8024 817.947 189.332 878.5 356.181V633.297C875.496 642.129 872.191 651.031 868.575 660Z" fill="url(#paint0_linear_4_271)"/>
<path d="M477.5 465C351.579 465 249.5 475.297 249.5 488C249.5 500.703 351.579 511 477.5 511C603.421 511 705.5 500.703 705.5 488C705.5 475.297 603.421 465 477.5 465Z" fill="#F0F0F5"/>
<path d="M683.88 398.817C683.88 398.817 651.532 491.056 648.066 491.056C644.6 491.056 575.282 512.963 636.513 485.291C636.513 485.291 643.445 384.981 653.843 380.369C664.24 375.758 683.88 398.817 683.88 398.817Z" fill="#965450"/>
<path d="M659.619 465.229C670.132 437.903 683.881 398.817 683.881 398.817C683.881 398.817 664.24 375.758 653.843 380.369C647.142 383.367 641.828 426.489 638.939 456.466C645.871 459.234 652.687 462.231 659.619 465.229Z" fill="#76413B"/>
<path d="M626.462 490.249C626.462 490.249 623.805 496.36 649.221 489.903L648.066 493.362C648.066 493.362 576.438 510.196 626.462 490.249Z" fill="#051F38"/>
<path d="M664.24 359.731C664.24 359.731 714.264 443.784 712.069 446.436C709.874 449.087 682.147 516.191 700.169 451.509C700.169 451.509 627.617 381.753 630.736 370.8C633.971 359.962 664.24 359.731 664.24 359.731Z" fill="#965450"/>
<path d="M697.628 462.347C697.628 462.347 700.632 468.342 711.954 444.706L713.918 447.819C713.802 447.819 680.761 513.539 697.628 462.347Z" fill="#051F38"/>
<path d="M693.354 409.771C679.952 386.134 664.24 359.731 664.24 359.731C664.24 359.731 633.971 359.962 630.736 370.8C628.657 377.833 658.464 409.655 679.606 431.101C679.721 431.216 687.924 422.108 693.354 409.771Z" fill="#76413B"/>
<path d="M696.01 233.364C696.01 233.364 665.394 199.351 647.487 220.681C629.58 242.011 601.853 312.343 605.896 341.168C608.323 358.117 624.612 376.219 637.667 388.325L626.692 450.125C626.692 450.125 671.748 462.231 668.86 462.231C667.127 462.231 713.339 338.286 717.96 299.084C722.582 259.883 696.01 233.364 696.01 233.364Z" fill="white"/>
<path opacity="0.2" d="M672.559 240.974C681.108 240.858 690.466 239.705 698.668 236.362C697.051 234.402 696.011 233.364 696.011 233.364C696.011 233.364 665.396 199.351 647.489 220.681C644.716 224.025 641.712 228.406 638.708 233.71C648.76 239.244 661.468 241.204 672.559 240.974Z" fill="#352C38"/>
<path opacity="0.2" d="M626.693 257.461C613.985 286.401 603.241 322.374 605.898 341.053C608.208 357.886 624.383 375.873 637.437 387.979C642.059 356.618 650.492 313.035 655.576 287.9C642.983 280.752 632.585 270.49 626.693 257.461Z" fill="#352C38"/>
<path d="M607.631 165.337L589.146 201.08C589.146 201.08 556.798 183.209 552.176 183.209C547.555 183.209 525.605 183.785 536.002 188.397C536.002 188.397 531.381 191.279 536.58 192.432C536.58 192.432 531.959 196.468 537.735 197.044L551.021 196.468C551.021 196.468 577.593 220.681 590.879 224.139C604.165 227.598 625.538 182.632 625.538 182.632L607.631 165.337Z" fill="#965450"/>
<path d="M610.635 190.934C613.523 191.972 616.527 193.01 619.531 194.047C623.228 187.591 625.538 182.517 625.538 182.517L607.631 165.223L597.464 184.823C601.508 187.36 606.014 189.32 610.635 190.934Z" fill="#76413B"/>
<path d="M630.736 148.043C630.736 148.043 613.407 145.161 607.052 154.385C600.698 163.608 597.81 178.597 597.81 178.597L622.649 190.704L630.736 148.043Z" fill="#96D81C"/>
<path opacity="0.1" d="M621.148 180.673C614.794 175.715 607.515 169.489 602.779 161.994C599.313 170.065 597.695 178.482 597.695 178.482L622.534 190.588L624.036 182.748C623.112 182.172 622.072 181.48 621.148 180.673Z" fill="#161826"/>
<path d="M509.199 178.943C509.892 180.788 508.853 182.863 507.004 183.555L493.372 188.513C491.523 189.205 489.444 188.167 488.75 186.322L483.321 171.218C482.627 169.373 483.667 167.298 485.516 166.606L499.148 161.648C500.997 160.957 503.076 161.994 503.769 163.839L509.199 178.943Z" fill="black"/>
<path d="M520.174 167.644L477.428 182.979C469.919 185.63 466.107 193.932 468.764 201.426L481.934 237.976C484.591 245.47 492.909 249.275 500.419 246.623L543.165 231.289C550.674 228.637 554.487 220.335 551.83 212.841L538.659 176.291C535.887 168.797 527.684 164.877 520.174 167.644ZM547.671 216.185C548.71 219.182 547.208 222.526 544.205 223.564L525.835 172.832C528.839 171.795 532.19 173.294 533.229 176.291L547.671 216.185Z" fill="white"/>
<path d="M506.426 163.608C507.004 165.223 506.195 167.067 504.578 167.644L485.169 174.677C483.551 175.254 481.703 174.447 481.125 172.832L479.508 168.336C478.93 166.722 479.739 164.877 481.356 164.3L500.765 157.267C502.383 156.691 504.231 157.498 504.809 159.112L506.426 163.608Z" fill="white"/>
<path d="M533.691 185.515C533.691 185.515 540.97 182.979 542.241 184.477C543.396 185.861 536.118 187.936 536.464 188.052C536.695 188.167 544.32 186.438 545.013 188.052C545.707 189.666 536.926 192.548 536.926 192.548C536.926 192.548 545.244 190.242 545.822 191.972C546.4 193.701 537.157 196.238 537.157 196.238L536.695 192.433L536.118 188.052L533.691 185.515Z" fill="#965450"/>
<path d="M543.974 183.555C543.974 183.555 538.313 179.75 538.313 178.482C538.197 177.098 553.332 183.44 553.332 183.44L543.974 183.555Z" fill="#965450"/>
<path d="M655.575 145.161C654.42 147.236 660.081 98.9261 660.081 98.9261L633.856 116.567C633.856 116.567 636.166 147.467 633.278 147.582C632.123 147.582 627.617 149.312 622.649 151.156C623.805 156.921 626.115 158.189 628.079 163.724C642.752 163.609 658.695 163.263 667.706 149.888C662.507 148.159 657.077 142.278 655.575 145.161Z" fill="#76413B"/>
<path d="M630.736 148.043L629.581 144.008L658.464 137.666L659.619 144.584C659.619 144.584 694.278 156.114 698.899 182.056C703.52 207.998 701.21 224.717 696.011 233.364C696.011 233.364 655.575 239.129 638.246 230.482C620.916 221.834 603.009 157.267 612.252 151.502C621.494 145.737 630.736 148.043 630.736 148.043Z" fill="#96D81C"/>
<path opacity="0.1" d="M668.515 219.874C654.651 219.067 637.668 217.453 626.115 208.921C623.92 207.307 621.956 205.577 620.108 203.617C625.307 216.415 631.776 227.253 638.246 230.482C655.576 239.129 696.011 233.364 696.011 233.364C698.322 229.559 700.055 224.14 700.863 216.992C690.466 220.105 679.606 220.566 668.515 219.874Z" fill="#161826"/>
<path d="M667.128 199.927L696.588 197.621C696.588 197.621 689.079 249.505 680.414 267.377C671.75 285.248 631.892 355.58 647.488 316.378C647.488 316.378 627.271 346.933 644.6 315.802C644.6 315.802 625.538 340.591 642.289 314.073C642.289 314.073 622.649 336.556 643.445 304.849C643.445 304.849 627.848 312.343 645.178 299.66L661.93 255.847L667.128 199.927Z" fill="#965450"/>
<path d="M695.895 201.772C696.358 199.12 696.589 197.506 696.589 197.506L667.128 199.812L666.897 202.81C676.486 202.81 686.191 202.349 695.895 201.772Z" fill="#76413B"/>
<path d="M636.282 67.9108C636.282 67.9108 650.955 59.3787 672.443 73.4451C686.653 82.7843 685.96 112.647 655.229 132.247C618.722 155.538 636.282 67.9108 636.282 67.9108Z" fill="#051F38"/>
<path d="M656.616 83.822C656.616 83.822 640.095 71.0238 626 77.25C608.209 85.3209 610.057 104.114 609.71 120.141C609.248 141.471 626.116 145.507 631.199 145.737C638.708 146.198 669.324 144.354 656.616 83.822Z" fill="#965450"/>
<path d="M658.233 103.769C658.233 103.769 658.926 100.54 664.472 103.077C671.519 106.42 667.707 123.254 659.85 122.793C651.879 122.447 658.233 103.769 658.233 103.769Z" fill="#965450"/>
<path d="M658.232 103.769C658.232 103.769 659.157 115.298 656.499 115.414C653.727 115.529 650.838 94.5447 658.463 94.5447C666.088 94.7753 658.232 103.769 658.232 103.769Z" fill="#051F38"/>
<path d="M658.233 103.769C658.233 103.769 652.572 78.1724 618.953 82.4384C618.953 82.4384 623.805 72.8686 634.434 68.372C648.875 62.2612 670.479 86.8198 664.471 103.077C664.471 103.077 661.699 103.423 658.233 103.769Z" fill="#96D81C"/>
<path d="M672.443 80.1324C672.443 80.1324 670.594 49.5783 677.988 49.5783C685.382 49.5783 677.41 75.2899 677.41 75.2899C677.41 75.2899 683.534 38.5097 701.325 44.044C719.117 49.5783 688.386 75.2899 688.386 75.2899C688.386 75.2899 702.48 62.3765 707.448 66.7578C712.3 71.0238 687.23 79.6712 687.23 79.6712C687.23 79.6712 706.293 74.1369 708.719 83.3608C711.145 92.4693 671.865 91.2011 672.443 80.1324Z" fill="#051F38"/>
<path d="M610.634 97.8889C610.634 97.8889 610.634 97.6583 610.865 97.1971C611.096 96.7359 611.327 96.1594 611.905 95.5829C612.483 95.0064 613.176 94.3146 614.1 93.8534C614.331 93.7381 614.562 93.6228 614.909 93.5075C615.14 93.3922 615.487 93.2769 615.718 93.2769C616.064 93.2769 616.295 93.1616 616.642 93.1616H617.566C618.144 93.1616 618.721 93.3922 619.299 93.6228C619.877 93.8534 620.339 94.084 620.801 94.4299C621.263 94.7758 621.61 95.1217 621.956 95.4676C622.303 95.8135 622.534 96.1594 622.649 96.5053C622.765 96.6206 622.88 96.8512 622.88 96.9665C622.996 97.0818 622.996 97.3124 623.111 97.4277C623.227 97.7736 623.343 98.0042 623.343 98.2348C623.458 98.6959 623.458 98.9265 623.458 98.9265C623.458 98.9265 623.227 98.8112 622.765 98.696C622.534 98.5807 622.303 98.4653 622.072 98.3501C621.841 98.2348 621.494 98.1195 621.147 97.8889C620.801 97.7736 620.57 97.543 620.223 97.4277C619.877 97.3124 619.53 97.1971 619.183 97.0818C618.837 96.9665 618.49 96.8512 618.144 96.7359C617.797 96.7359 617.451 96.6206 617.104 96.6206H616.642C616.526 96.6206 616.295 96.6206 616.064 96.6206C615.718 96.6206 615.371 96.7359 615.024 96.7359C614.678 96.8512 614.331 96.8512 613.985 96.9665C613.638 97.0818 613.291 97.0818 612.945 97.1971C612.252 97.4277 611.674 97.543 611.327 97.6583C610.981 97.8889 610.634 97.8889 610.634 97.8889Z" fill="#051F38"/>
<path d="M619.53 129.595C619.53 129.595 638.477 130.172 639.747 129.941C640.903 129.711 629.119 138.935 619.53 129.595Z" fill="white"/>
<path d="M620.801 108.496C620.801 108.496 620.801 108.726 620.685 109.188C620.57 109.649 620.454 110.225 620.223 111.032C620.108 111.378 619.992 111.839 619.761 112.185C619.645 112.416 619.53 112.647 619.414 112.762C619.299 112.992 619.068 113.223 618.952 113.338C618.606 113.684 618.259 114.145 617.681 114.376C617.566 114.491 617.45 114.491 617.219 114.607L616.873 114.722C616.642 114.837 616.295 114.837 615.949 114.837C615.371 114.837 614.678 114.722 614.216 114.261C613.753 113.915 613.407 113.454 613.176 112.877C612.945 112.416 612.829 111.955 612.714 111.494C612.598 111.032 612.598 110.571 612.598 110.225C612.598 109.418 612.598 108.842 612.714 108.381C612.829 107.919 612.945 107.689 612.945 107.689C612.945 107.689 612.945 108.726 613.291 110.225C613.407 110.917 613.638 111.839 614.1 112.531C614.331 112.877 614.562 113.223 614.909 113.454C615.255 113.684 615.602 113.8 615.949 113.8C616.18 113.8 616.295 113.8 616.526 113.684L616.873 113.569C616.873 113.569 616.988 113.454 617.104 113.454C617.45 113.338 617.797 112.992 618.144 112.762C618.49 112.416 618.721 112.07 618.952 111.724C619.183 111.378 619.414 111.032 619.53 110.686C619.877 109.995 620.108 109.418 620.339 109.072C620.685 108.726 620.801 108.496 620.801 108.496Z" fill="#1F2733"/>
<path d="M639.863 109.995C639.863 109.995 639.863 110.225 639.748 110.686C639.632 111.148 639.517 111.724 639.286 112.531C639.17 112.877 639.055 113.338 638.823 113.684C638.708 113.915 638.592 114.145 638.477 114.261C638.361 114.491 638.13 114.722 638.015 114.837C637.668 115.183 637.322 115.644 636.744 115.875C636.628 115.99 636.513 115.99 636.282 116.106L635.935 116.221C635.704 116.336 635.358 116.336 635.011 116.336C634.433 116.336 633.74 116.221 633.278 115.76C632.816 115.414 632.469 114.953 632.238 114.376C632.007 113.915 631.892 113.454 631.776 112.992C631.661 112.531 631.661 112.07 631.661 111.724C631.661 110.917 631.661 110.341 631.776 109.879C631.892 109.418 632.007 109.188 632.007 109.188C632.007 109.188 632.007 110.225 632.354 111.724C632.469 112.416 632.7 113.338 633.163 114.03C633.394 114.376 633.625 114.722 633.971 114.953C634.318 115.183 634.664 115.298 635.011 115.298C635.242 115.298 635.358 115.298 635.589 115.183L635.935 115.068C635.935 115.068 636.051 114.953 636.166 114.953C636.513 114.837 636.859 114.491 637.206 114.261C637.553 113.915 637.784 113.569 638.015 113.223C638.246 112.877 638.477 112.531 638.592 112.185C638.939 111.494 639.17 110.917 639.401 110.571C639.748 110.225 639.863 109.995 639.863 109.995Z" fill="#1F2733"/>
<path d="M660.89 119.565C661.236 119.103 661.467 118.757 661.698 118.296C661.929 117.835 662.045 117.374 662.16 116.913C662.16 116.682 662.16 116.451 662.16 116.221C662.16 116.106 662.045 115.99 662.045 115.99C662.045 115.875 661.929 115.76 661.814 115.76C661.698 115.644 661.698 115.644 661.583 115.529L661.352 115.298C661.236 115.183 661.121 115.183 661.005 115.183L660.659 115.068L660.427 114.953V114.722C660.081 113.454 659.965 112.301 659.85 111.032C659.734 110.456 659.734 109.764 659.85 109.188C659.85 108.496 659.965 107.919 660.196 107.228C660.312 106.882 660.543 106.536 660.89 106.305C661.236 106.075 661.698 105.844 662.045 105.959C662.507 105.959 662.738 106.075 663.085 106.19C663.431 106.305 663.778 106.421 664.009 106.651C664.24 106.882 664.587 107.112 664.702 107.343C664.933 107.574 665.049 107.919 665.164 108.15C665.395 108.726 665.511 109.418 665.395 109.995C665.28 109.418 665.164 108.842 664.818 108.265C664.702 108.035 664.471 107.804 664.24 107.573C664.009 107.343 663.778 107.228 663.547 107.112C663.316 106.997 663.085 106.882 662.738 106.882C662.507 106.882 662.16 106.766 661.929 106.766C661.467 106.766 661.236 107.112 661.121 107.573C660.774 108.611 660.89 109.764 660.89 110.917C661.005 112.07 661.121 113.338 661.352 114.491L661.121 114.146L661.467 114.376C661.583 114.491 661.698 114.491 661.814 114.607L662.16 114.837C662.276 114.953 662.391 115.068 662.507 115.183C662.623 115.299 662.738 115.414 662.738 115.644C662.854 115.76 662.854 115.99 662.854 116.106C662.969 116.451 662.854 116.682 662.854 117.028C662.738 117.604 662.391 118.066 662.045 118.527C661.698 118.873 661.236 119.334 660.89 119.565Z" fill="#76413B"/>
<path d="M622.534 124.407C621.956 124.522 621.494 124.522 621.032 124.522C620.57 124.522 620.108 124.407 619.761 124.292C619.299 124.176 618.952 123.946 618.606 123.831C618.375 123.715 618.259 123.6 618.028 123.485C617.797 123.369 617.682 123.254 617.451 123.139L616.757 122.562L616.873 122.101C618.028 118.757 619.183 115.529 620.339 112.301C621.494 109.072 622.765 105.729 624.036 102.5C623.227 105.844 622.303 109.303 621.494 112.647C620.57 115.99 619.646 119.334 618.721 122.678L618.259 121.64C618.49 121.64 618.721 121.755 618.952 121.755C619.183 121.755 619.415 121.87 619.53 121.986C619.877 122.101 620.339 122.332 620.685 122.562C621.032 122.793 621.379 123.139 621.725 123.485C621.956 123.6 622.303 123.946 622.534 124.407Z" fill="#76413B"/>
<path d="M629.35 96.5048C629.35 96.5048 629.466 96.1589 629.812 95.813C630.043 95.5824 630.159 95.3518 630.505 95.0059C630.852 94.7753 631.083 94.4294 631.545 94.1988C631.892 93.9682 632.354 93.6223 632.931 93.3917C633.394 93.1611 633.971 92.9305 634.549 92.6999C635.127 92.5846 635.82 92.354 636.513 92.354C636.86 92.354 637.206 92.354 637.553 92.354L638.592 92.4693C639.286 92.4693 639.979 92.8152 640.556 92.9305C641.134 93.1611 641.712 93.507 642.289 93.7376C642.867 94.0835 643.329 94.4294 643.676 94.7753C644.138 95.1212 644.484 95.5824 644.716 95.9283C645.062 96.2742 645.293 96.6201 645.524 96.966C645.755 97.3119 645.871 97.6578 645.986 97.8884C646.217 98.3496 646.333 98.6955 646.333 98.6955C646.333 98.6955 645.986 98.5802 645.524 98.3496C645.293 98.2343 644.947 98.119 644.6 97.8884C644.253 97.6578 643.907 97.5425 643.445 97.4272C643.098 97.3119 642.636 97.0813 642.174 96.8507C641.712 96.7354 641.25 96.5048 640.788 96.3895C640.325 96.2742 639.863 96.1589 639.401 96.0436C638.939 96.0436 638.477 95.813 637.899 95.813L637.206 95.6977H636.513C636.051 95.6977 635.473 95.6977 635.011 95.6977C634.549 95.6977 634.087 95.6977 633.625 95.813C633.163 95.813 632.7 95.9283 632.238 95.9283C631.43 96.0436 630.621 96.1589 630.159 96.2742C629.697 96.5048 629.35 96.5048 629.35 96.5048Z" fill="#051F38"/>
<path d="M613.407 490.825C613.407 494.976 610.057 498.435 605.898 498.55C601.739 498.55 598.273 495.207 598.157 491.056L597.811 466.613C597.811 462.462 601.161 459.003 605.32 458.888C609.479 458.888 612.945 462.231 613.06 466.382L613.407 490.825Z" fill="#091E1D"/>
<path d="M507.004 492.095C507.004 496.245 503.654 499.704 499.495 499.82C495.336 499.82 491.87 496.476 491.754 492.325L491.408 467.882C491.408 463.731 494.758 460.272 498.917 460.157C503.076 460.157 506.542 463.501 506.658 467.651L507.004 492.095Z" fill="#091E1D"/>
<path d="M604.858 473.415C604.973 482.87 597.348 490.595 587.875 490.71L516.709 491.517C507.235 491.633 499.495 484.023 499.379 474.568L491.754 312.92C491.639 303.466 499.264 295.741 508.737 295.625L591.341 294.588C600.814 294.472 608.555 302.082 608.67 311.536L604.858 473.415Z" fill="#96D81C"/>
<path opacity="0.1" d="M608.208 327.793L608.555 311.767C608.439 302.313 600.699 294.703 591.225 294.818L508.621 295.856C499.148 295.971 491.523 303.696 491.639 313.151L492.447 329.177L608.208 327.793Z" fill="#161826"/>
<path d="M622.303 307.732C622.303 310.383 620.223 312.459 617.566 312.574L482.627 314.188C479.97 314.188 477.891 312.113 477.775 309.461L477.544 292.397C477.544 289.745 479.623 287.67 482.281 287.554L617.219 285.94C619.877 285.94 621.956 288.016 622.072 290.667L622.303 307.732Z" fill="#96D81C"/>
<path d="M550.674 355.119L566.386 345.665L562.574 355.465L550.674 355.119Z" fill="white"/>
<path d="M544.783 340.246C544.783 340.246 546.054 340.246 548.018 343.243C549.982 346.241 554.372 354.312 554.372 354.312L562.343 350.738L564.192 347.625C564.192 347.625 560.726 340.707 557.953 340.246H544.783Z" fill="white"/>
<path d="M540.392 342.321C540.392 342.321 542.818 339.669 544.782 341.053C546.746 342.437 550.212 348.202 550.212 348.202L544.551 358.117L534.385 352.468L540.392 342.321Z" fill="white"/>
<path d="M557.838 367.456L558.646 385.673L551.83 377.718L557.838 367.456Z" fill="white"/>
<path d="M573.781 369.301C573.781 369.301 573.203 370.454 569.621 370.8C566.04 371.146 556.798 371.146 556.798 371.146L556.104 379.908L557.953 383.021C557.953 383.021 565.693 383.367 567.426 381.061L573.781 369.301Z" fill="white"/>
<path d="M573.896 364.458C573.896 364.458 575.167 367.802 572.972 368.955C570.892 369.993 564.076 370.223 564.076 370.223L557.953 360.538L567.773 354.197L573.896 364.458Z" fill="white"/>
<path d="M543.972 367.226L527.798 358.693L538.196 356.849L543.972 367.226Z" fill="white"/>
<path d="M534.385 380.024C534.385 380.024 533.692 378.986 535.194 375.758C536.695 372.529 541.317 364.574 541.317 364.574L534.154 359.616L530.572 359.731C530.572 359.731 526.413 366.303 527.453 368.84L534.385 380.024Z" fill="white"/>
<path d="M538.428 382.56C538.428 382.56 534.847 381.868 535.078 379.562C535.194 377.141 538.428 371.261 538.428 371.261L549.866 370.915L550.328 382.56H538.428Z" fill="white"/>
<path d="M302.747 445.167C302.747 445.167 300.206 485.868 298.011 486.675C289.577 489.557 225.92 505.699 286.111 478.604L284.494 448.972L302.747 445.167Z" fill="#051F38"/>
<path d="M300.09 476.759C301.592 464.422 302.747 445.167 302.747 445.167L284.494 448.972L285.996 475.376C290.501 476.644 295.7 476.759 300.09 476.759Z" fill="#041523"/>
<path d="M260.579 492.786C258.731 497.282 292.003 488.75 298.011 486.675C298.126 486.56 298.357 486.329 298.588 485.752C291.079 487.828 268.32 493.016 260.579 492.786Z" fill="white"/>
<path d="M341.681 442.977C341.681 442.977 345.032 483.677 347.342 484.369C355.891 487.136 419.779 502.01 359.011 476.067L360.05 446.436L341.681 442.977Z" fill="#051F38"/>
<path d="M345.032 474.453C343.299 462.232 341.681 442.977 341.681 442.977L360.05 446.436L359.126 472.839C354.62 474.223 349.422 474.338 345.032 474.453Z" fill="#041523"/>
<path d="M384.889 489.788C386.853 494.284 353.35 486.329 347.342 484.369C347.111 484.369 346.996 484.023 346.765 483.446C354.274 485.522 377.149 490.249 384.889 489.788Z" fill="white"/>
<path d="M352.887 223.218C352.887 223.218 369.523 357.31 366.173 465.806C366.173 465.806 346.302 471.34 341.103 467.305C336.597 441.593 337.175 391.554 330.474 354.427C324.12 319.377 321.579 290.667 321.579 290.667L319.499 288.361C319.499 288.361 305.866 457.85 302.863 470.764C285.649 474.799 280.219 470.072 280.219 470.072C280.219 470.072 272.363 258.038 277.215 223.794C283.454 179.059 352.887 223.218 352.887 223.218Z" fill="#96D81C"/>
<path opacity="0.1" d="M355.89 251.004C354.157 233.709 352.77 223.333 352.77 223.333C352.77 223.333 283.453 179.173 277.098 223.909C276.521 228.06 276.174 234.862 275.828 243.51C281.026 246.392 345.954 255.616 355.89 251.004Z" fill="#161826"/>
<path opacity="0.1" d="M320.308 286.978C321.116 296.086 325.275 325.488 330.474 354.427C337.175 391.669 336.597 441.593 341.103 467.305C346.302 471.34 366.173 465.806 366.173 465.806C368.137 399.048 362.707 322.605 358.086 273.719C347.111 280.636 333.131 283.98 320.308 286.978Z" fill="#161826"/>
<path d="M326.2 105.959C326.315 91.8929 327.355 73.3298 327.355 73.3298L299.628 65.7201C299.628 65.7201 300.552 90.8552 301.361 106.19C288.768 110.456 274.442 118.527 274.442 118.527L326.777 131.786L345.378 113.8C345.378 113.8 336.02 109.072 326.2 105.959Z" fill="#FFB39F"/>
<path d="M326.2 105.959C326.315 91.8929 327.355 73.3298 327.355 73.3298L299.628 65.7201C299.628 65.7201 300.552 90.8552 301.361 106.19C288.768 110.456 274.442 118.527 274.442 118.527L326.777 131.786L351.501 110.571C351.501 110.571 336.135 104.806 326.2 105.959Z" fill="#E09B8D"/>
<path d="M297.202 39.0862C297.202 39.0862 304.48 15.5653 323.658 19.2549C342.836 22.9444 345.609 47.9642 348.035 64.7978C350.461 81.7466 345.031 96.966 330.012 98.8108C316.957 100.425 294.198 97.8884 297.202 39.0862Z" fill="#FFB39F"/>
<path d="M298.126 58.8022C298.126 58.8022 296.971 55.6892 292.234 59.1481C286.226 63.5295 292.349 79.6712 299.628 77.9418C306.906 76.2123 298.126 58.8022 298.126 58.8022Z" fill="#FFB39F"/>
<path d="M291.425 25.5963C291.887 25.481 300.899 24.7892 294.891 25.3657C300.436 31.3612 299.859 32.8601 307.484 34.2436C311.527 46.6959 303.556 54.1903 303.556 54.1903L305.751 69.1791L299.974 69.7556C299.974 69.7556 300.09 59.3787 295.7 58.4563C291.31 57.5339 290.039 62.8377 290.039 62.8377C280.912 51.3078 271.669 28.7093 291.425 25.5963Z" fill="#051F38"/>
<path d="M343.76 17.1795C347.457 8.07089 341.219 0 341.219 0C342.258 3.34366 341.796 6.45671 340.756 8.99328C340.063 6.45671 338.792 3.68955 336.482 0.922387C336.482 0.922387 337.175 10.1463 324.582 8.99328C311.989 7.84029 289.923 9.56977 288.999 29.0552C287.959 48.5407 306.791 34.3589 306.791 34.3589C306.791 34.3589 344.338 44.8511 349.768 14.6429L343.76 17.1795Z" fill="#051F38"/>
<path d="M325.969 50.8476C325.969 50.8476 325.622 50.8476 325.16 50.7323C324.582 50.617 323.889 50.5017 323.081 50.3864C322.618 50.2711 322.272 50.2711 321.81 50.2711C321.348 50.1558 320.886 50.1558 320.423 50.1558C319.961 50.1558 319.499 50.1558 318.921 50.1558C318.69 50.1558 318.459 50.1558 318.228 50.1558L317.535 50.2711C317.073 50.2711 316.611 50.3864 316.033 50.5017C315.571 50.617 315.109 50.7323 314.647 50.8476C314.185 50.9629 313.723 51.1935 313.261 51.3088C312.798 51.4241 312.452 51.6547 311.99 51.77C311.643 51.8853 311.181 52.0006 310.95 52.2312C310.603 52.3465 310.372 52.4618 310.141 52.5771C309.679 52.8077 309.333 52.923 309.333 52.923C309.333 52.923 309.448 52.5771 309.679 52.1159C309.795 51.8853 309.91 51.5394 310.141 51.1935C310.372 50.8476 310.603 50.5017 310.95 50.1558C311.297 49.8099 311.528 49.3487 311.99 49.0028C312.452 48.6569 312.914 48.311 313.492 47.9651C314.069 47.7345 314.647 47.3886 315.225 47.158C315.918 46.9274 316.495 46.8121 317.189 46.6968L318.228 46.5815C318.575 46.5815 318.922 46.5815 319.268 46.6968C319.615 46.6968 319.961 46.8121 320.192 46.8121C320.539 46.9274 320.77 46.9274 321.117 47.0427C321.694 47.2733 322.272 47.3886 322.734 47.7345C323.196 47.9651 323.658 48.311 324.12 48.5416C324.467 48.7722 324.814 49.1181 325.16 49.3487C325.391 49.5793 325.622 49.9252 325.853 50.0405C325.738 50.5017 325.969 50.8476 325.969 50.8476Z" fill="#051F38"/>
<path d="M345.493 50.2701C345.493 50.2701 345.262 50.1548 344.8 50.0395C344.338 49.9242 343.76 49.6936 343.182 49.463C342.836 49.3477 342.489 49.2325 342.143 49.1172C341.796 49.0019 341.449 48.8865 341.103 48.8865C340.756 48.8865 340.41 48.7713 340.063 48.656C339.948 48.656 339.716 48.656 339.601 48.5407H339.139C338.792 48.4254 338.446 48.656 338.099 48.5407C337.752 48.656 337.406 48.656 337.059 48.7713C336.713 48.8866 336.366 49.0019 336.02 49.1172C335.673 49.2325 335.326 49.3477 335.095 49.463C334.749 49.5783 334.402 49.6936 334.171 49.8089C333.94 49.9242 333.709 50.0395 333.478 50.0395C333.016 50.1548 332.785 50.2701 332.785 50.2701C332.785 50.2701 332.785 50.0395 333.016 49.5783C333.131 49.3477 333.131 49.1171 333.362 48.7713C333.478 48.4254 333.709 48.1948 333.94 47.8489C334.171 47.503 334.402 47.1571 334.749 46.8112C335.095 46.4653 335.557 46.2347 335.904 45.8888C336.366 45.6582 336.944 45.4276 337.406 45.197C337.984 45.0817 338.561 44.9664 339.139 44.9664C339.485 44.9664 339.716 44.9664 340.063 44.9664C340.41 44.9664 340.641 45.0817 340.872 45.197C341.103 45.197 341.449 45.3123 341.68 45.4276C341.912 45.5429 342.143 45.6582 342.374 45.7735C343.298 46.35 343.991 46.9265 344.453 47.6183C344.915 48.3101 345.146 48.8866 345.377 49.3477C345.493 50.0395 345.493 50.2701 345.493 50.2701Z" fill="#051F38"/>
<path d="M331.283 51.5384C331.976 53.0373 332.67 54.6515 333.363 56.1504C333.709 56.9574 333.94 57.6492 334.287 58.4563L335.211 60.7623L336.135 63.0683C336.482 63.8754 336.713 64.5671 337.06 65.3742L337.522 66.5272C337.637 66.8731 337.868 67.3343 337.984 67.6802C338.331 68.372 338.677 69.0638 339.024 69.8709L339.37 70.7933L338.677 71.1392C337.637 71.6004 336.598 72.1768 335.442 72.638C334.403 73.0992 333.247 73.5604 332.092 73.9063C333.016 73.0992 333.94 72.4074 334.865 71.7157C335.789 71.0239 336.829 70.3321 337.753 69.6403L337.406 70.9086C336.944 70.2168 336.482 69.4097 336.02 68.7179C335.558 68.0261 335.211 67.219 334.865 66.4119L334.287 65.2589L333.825 64.106C333.594 63.2989 333.247 62.4918 333.016 61.6847L332.323 59.2634C332.092 58.4563 331.976 57.6492 331.745 56.8421C331.63 54.9974 331.399 53.2679 331.283 51.5384Z" fill="#DD9078"/>
<path d="M297.779 74.5981C297.317 74.3675 296.855 74.0216 296.509 73.5604C296.162 73.2145 295.7 72.7533 295.469 72.1769C295.353 71.9463 295.238 71.6004 295.238 71.2545C295.238 71.1392 295.238 70.9086 295.238 70.7933C295.238 70.678 295.353 70.4474 295.353 70.3321C295.469 69.9862 295.7 69.7556 295.931 69.525C296.046 69.4097 296.162 69.2944 296.277 69.1791L296.624 68.9485L296.393 69.2944C296.393 68.0261 296.393 66.7578 296.277 65.6048C296.162 64.3366 296.046 63.0683 295.584 62.0306C295.469 61.8 295.353 61.5694 295.122 61.4541C295.007 61.3388 294.776 61.2235 294.545 61.2235C294.429 61.2235 294.313 61.2235 294.198 61.3388C294.082 61.3388 293.851 61.4541 293.736 61.4541C293.505 61.5694 293.274 61.6847 293.043 61.9153C292.812 62.1459 292.58 62.2612 292.465 62.4918C292.349 62.7224 292.118 62.953 292.003 63.2989C291.772 63.8754 291.656 64.4519 291.656 65.1436C291.425 64.5671 291.425 63.8754 291.541 63.1836C291.541 62.8377 291.656 62.4918 291.887 62.2612C292.003 61.9153 292.234 61.6847 292.465 61.4541L292.812 61.1082L293.274 60.7623C293.389 60.647 293.62 60.647 293.736 60.5317C293.851 60.4164 294.082 60.4164 294.313 60.3011C294.776 60.1858 295.238 60.3011 295.584 60.647C295.931 60.8776 296.162 61.2235 296.277 61.5694C296.624 62.2612 296.74 62.8377 296.971 63.5295C297.086 64.2213 297.202 64.7977 297.202 65.4895C297.317 66.7578 297.317 68.0261 297.202 69.4097V69.6403L296.971 69.7556C296.74 69.8709 296.509 69.9862 296.393 70.2168C296.277 70.3321 296.046 70.5627 295.931 70.678C295.815 70.7933 295.815 70.9086 295.815 71.0239C295.815 71.1392 295.7 71.2545 295.7 71.3698C295.7 71.6004 295.7 71.831 295.7 72.0615C295.815 72.5227 296.046 72.9839 296.393 73.4451C297.086 73.9063 297.433 74.2522 297.779 74.5981Z" fill="#DD9078"/>
<path d="M315.917 61.8C315.917 61.8 316.033 62.0306 316.149 62.4917C316.264 62.7223 316.264 62.9529 316.38 63.1835C316.495 63.4141 316.611 63.76 316.842 64.1059C316.957 64.4518 317.304 64.6824 317.419 65.0283C317.535 65.1436 317.65 65.2589 317.881 65.4895C317.997 65.6048 318.113 65.7201 318.344 65.8354C318.69 66.066 319.037 66.1813 319.383 66.2966C319.614 66.2966 319.73 66.4119 319.961 66.4119C320.192 66.4119 320.308 66.4119 320.539 66.2966L321.116 66.066L321.694 65.7201C322.041 65.4895 322.272 65.1436 322.503 64.7977C322.734 64.4518 322.849 64.1059 323.08 63.76C323.196 63.4141 323.311 63.0682 323.311 62.607C323.311 62.2611 323.311 61.9152 323.427 61.6847C323.427 61.3388 323.427 61.1082 323.427 60.8776C323.427 60.4164 323.427 60.1858 323.427 60.1858C323.427 60.1858 323.542 60.4164 323.658 60.8776C323.774 61.1082 323.774 61.3388 323.889 61.6847C323.889 62.0305 324.005 62.3764 324.005 62.7223C324.005 63.0682 324.005 63.5294 323.889 63.9906C323.774 64.4518 323.658 64.913 323.427 65.3742C323.196 65.8354 322.849 66.2966 322.387 66.6425L321.694 67.1037C321.463 67.219 321.116 67.3343 320.885 67.4496C320.654 67.4496 320.308 67.5649 319.961 67.5649C319.73 67.5649 319.383 67.4496 319.152 67.4496C318.575 67.3343 318.113 66.9884 317.65 66.6425C317.188 66.2966 316.957 65.8354 316.726 65.4895C316.495 65.0283 316.264 64.6824 316.149 64.3365C316.033 63.9906 315.917 63.6447 315.917 63.2988C315.917 62.9529 315.917 62.7223 315.917 62.4917C315.917 62.0306 315.917 61.8 315.917 61.8Z" fill="#1F2733"/>
<path d="M336.829 58.341C336.829 58.341 336.944 58.5716 337.06 59.0328C337.175 59.2634 337.175 59.494 337.291 59.7246C337.406 59.9552 337.522 60.3011 337.753 60.647C337.868 60.9929 338.215 61.2235 338.331 61.5694C338.446 61.6847 338.562 61.8 338.793 62.0306C338.908 62.1459 339.024 62.2612 339.255 62.3765C339.601 62.6071 339.948 62.7224 340.295 62.8377C340.526 62.8377 340.641 62.953 340.872 62.953C341.103 62.953 341.219 62.953 341.45 62.8377L342.027 62.6071L342.605 62.2612C342.952 62.0306 343.183 61.6847 343.414 61.3388C343.645 60.9929 343.76 60.647 343.991 60.3011C344.107 59.9552 344.223 59.6093 344.223 59.1481C344.223 58.8022 344.223 58.4563 344.338 58.2257C344.338 57.8798 344.338 57.6492 344.338 57.4186C344.338 56.9574 344.338 56.7269 344.338 56.7269C344.338 56.7269 344.454 56.9574 344.569 57.4186C344.685 57.6492 344.685 57.8798 344.8 58.2257C344.8 58.5716 344.916 58.9175 344.916 59.2634C344.916 59.6093 344.916 60.0705 344.8 60.5317C344.685 60.9929 344.569 61.4541 344.338 61.9153C344.107 62.3765 343.76 62.8377 343.298 63.1836L342.605 63.6448C342.374 63.7601 342.027 63.8754 341.796 63.9906C341.565 63.9906 341.219 64.106 340.872 64.106C340.641 64.106 340.295 63.9906 340.063 63.9906C339.486 63.8754 339.024 63.5295 338.562 63.1836C338.099 62.8377 337.868 62.3765 337.637 62.0306C337.406 61.5694 337.175 61.2235 337.06 60.8776C336.944 60.5317 336.829 60.1858 336.829 59.8399C336.829 59.494 336.829 59.2634 336.829 59.0328C336.829 58.5716 336.829 58.341 336.829 58.341Z" fill="#1F2733"/>
<path d="M317.737 78.1034C317.737 78.1034 317.621 78.1034 317.737 78.2187C317.852 78.334 318.083 78.4493 318.315 78.5646C318.777 78.9105 319.585 79.2564 320.51 79.7176C321.434 80.1788 322.589 80.64 323.744 80.9858C324.322 81.2164 325.015 81.3317 325.593 81.447C326.171 81.5623 326.864 81.6776 327.557 81.7929C328.828 81.9082 330.099 82.0235 331.369 81.9082C332.64 81.7929 333.68 81.5623 334.72 81.2164C335.644 80.8705 336.453 80.64 337.03 80.4094C337.608 80.1788 337.955 80.0635 337.955 80.0635C337.955 80.0635 337.724 80.4094 337.261 80.7552C336.799 81.2164 336.106 81.7929 335.182 82.3694C334.258 82.9459 332.987 83.5224 331.6 83.753C330.214 84.0989 328.712 84.0989 327.21 83.9836C326.517 83.8683 325.708 83.753 325.015 83.5224C324.322 83.2918 323.629 83.0612 323.051 82.7153C321.78 82.1388 320.741 81.447 319.932 80.7552C319.123 80.0635 318.43 79.3717 318.083 78.7952C317.852 78.5646 317.737 78.334 317.737 78.1034C317.621 78.2187 317.621 78.1034 317.737 78.1034Z" fill="#DD9078"/>
<path d="M335.789 105.613C335.789 105.613 365.365 102.5 369.177 125.099C372.99 147.813 372.643 153.923 372.643 153.923L343.761 149.657L335.789 105.613Z" fill="white"/>
<path d="M360.742 123.83C359.009 109.417 344.337 106.304 335.788 105.612C331.975 110.916 326.661 114.721 319.383 114.952C311.064 115.182 303.439 112.3 299.396 105.958C286.457 107.457 273.633 111.147 270.744 119.909C264.621 138.357 269.936 239.82 269.936 239.82C269.936 239.82 321.693 248.698 364.208 240.627C364.093 240.742 363.053 143.084 360.742 123.83Z" fill="#F0F0F5"/>
<path opacity="0.2" d="M267.742 169.258C267.973 202.695 269.937 239.936 269.937 239.936C269.937 239.936 321.694 248.814 364.209 240.743C364.209 240.743 363.4 166.606 361.667 134.784C330.359 146.429 299.05 157.959 267.742 169.258Z" fill="#352C38"/>
<path d="M299.627 196.007C299.627 196.007 298.472 192.664 303.786 190.473C309.101 188.282 363.862 173.985 367.328 174.447C370.793 174.908 413.193 179.981 413.886 182.287C414.579 184.593 363.168 201.196 363.168 201.196L299.627 196.007Z" fill="#E1EDFF"/>
<path d="M366.057 205.577C366.057 205.577 306.097 205.347 301.476 199.928C296.855 194.509 296.739 190.588 322.965 195.2C349.19 199.812 364.324 199.12 364.324 199.12C364.324 199.12 412.385 176.753 414.002 182.172C415.504 187.706 420.587 186.322 366.057 205.577Z" fill="#C0D5FF"/>
<path d="M413.887 182.287C412.385 176.868 364.209 199.236 364.209 199.236C364.209 199.236 364.093 199.236 363.747 199.236C364.786 201.311 365.595 203.271 366.519 205.462C420.587 186.322 415.504 187.706 413.887 182.287Z" fill="#B1C5E8"/>
<path d="M297.894 183.67C297.894 183.67 296.738 180.327 302.053 178.136C307.367 175.945 362.128 161.648 365.594 162.11C369.06 162.571 411.459 167.644 412.153 169.95C412.846 172.256 361.435 188.859 361.435 188.859L297.894 183.67Z" fill="#E1EDFF"/>
<path d="M364.324 193.356C364.324 193.356 304.364 193.125 299.743 187.706C295.122 182.287 295.006 178.367 321.231 182.979C347.457 187.591 362.591 186.899 362.591 186.899C362.591 186.899 410.651 164.531 412.269 169.95C413.655 175.369 418.854 173.985 364.324 193.356Z" fill="#C0D5FF"/>
<path d="M412.154 170.065C410.652 164.646 362.476 187.014 362.476 187.014C362.476 187.014 362.36 187.014 362.014 187.014C363.053 189.09 363.862 191.05 364.786 193.24C418.739 173.985 413.655 175.369 412.154 170.065Z" fill="#B1C5E8"/>
<path d="M297.663 173.639C297.663 173.639 296.623 170.757 301.706 168.797C306.79 166.837 359.818 154.269 363.168 154.73C366.519 155.192 407.532 159.688 408.225 161.648C408.918 163.608 359.125 178.367 359.125 178.367L297.663 173.639Z" fill="#E1EDFF"/>
<path d="M361.898 182.172C361.898 182.172 303.902 181.941 299.397 177.214C294.891 172.486 294.891 169.027 320.192 173.063C345.493 177.098 360.165 176.522 360.165 176.522C360.165 176.522 406.724 156.806 408.226 161.648C409.728 166.376 414.695 165.107 361.898 182.172Z" fill="#C0D5FF"/>
<path d="M408.226 161.648C406.724 156.921 360.165 176.522 360.165 176.522C360.165 176.522 360.05 176.522 359.703 176.522C360.627 178.251 361.552 180.096 362.36 181.941C414.695 165.107 409.728 166.376 408.226 161.648Z" fill="#B1C5E8"/>
<path d="M299.28 160.15C299.28 160.15 298.356 157.267 303.555 155.422C308.754 153.693 362.129 143.085 365.479 143.662C368.829 144.123 409.611 150.234 410.189 152.194C410.767 154.154 360.511 166.952 360.511 166.952L299.28 160.15Z" fill="white"/>
<path d="M363.169 171.102C363.169 171.102 305.173 168.681 300.899 163.838C296.624 158.88 296.624 155.537 321.809 160.494C346.995 165.452 361.667 165.452 361.667 165.452C361.667 165.452 408.919 147.581 410.19 152.308C411.576 157.035 416.544 155.998 363.169 171.102Z" fill="#C0D5FF"/>
<path d="M410.19 152.309C408.919 147.467 361.667 165.453 361.667 165.453C361.667 165.453 361.552 165.453 361.205 165.453C362.129 167.298 362.938 169.143 363.631 170.988C416.428 155.999 411.461 157.036 410.19 152.309Z" fill="#B1C5E8"/>
<path d="M269.128 162.34L297.664 155.422C297.664 155.422 303.787 196.93 305.404 199.236C307.022 201.542 354.736 203.848 354.736 203.848L368.599 204.655C368.599 204.655 310.025 229.213 293.158 219.298C276.06 209.151 269.128 162.34 269.128 162.34Z" fill="#FFB39F"/>
<path d="M271.901 167.298C280.681 164.646 289.23 161.418 298.241 159.458C297.895 156.921 297.664 155.422 297.664 155.422L269.128 162.34C269.128 162.34 269.475 164.416 270.052 167.875C270.745 167.644 271.323 167.413 271.901 167.298Z" fill="#E09B8D"/>
<path d="M363.285 208.46C363.285 208.46 385.004 202.695 385.004 198.313C385.004 193.932 377.148 178.136 382.694 199.236C382.694 199.236 371.141 170.642 380.383 200.619C380.383 200.619 371.372 177.329 377.495 201.196C377.495 201.196 368.252 185.054 374.953 202.349L366.635 205.462L346.648 205.231L336.02 215.608L363.285 208.46Z" fill="#FFB39F"/>
<path d="M414.118 187.36C414.118 187.36 402.565 158.766 411.807 188.744C411.807 188.744 402.796 165.453 408.919 189.32C408.919 189.32 399.676 173.178 405.568 190.588L399.214 193.586C401.525 193.817 404.529 193.701 406.955 192.894C414.349 191.395 416.428 188.859 416.428 186.553C416.428 182.172 408.572 166.376 414.118 187.36Z" fill="#FFB39F"/>
<path d="M443.578 490.825C443.578 494.976 440.228 498.435 436.069 498.55C431.909 498.55 428.444 495.207 428.328 491.056L427.981 466.613C427.981 462.462 431.332 459.003 435.491 458.888C439.65 458.888 443.116 462.231 443.231 466.382L443.578 490.825Z" fill="#091E1D"/>
<path d="M337.175 492.095C337.175 496.245 333.825 499.704 329.666 499.82C325.507 499.82 322.041 496.476 321.925 492.325L321.579 467.882C321.579 463.731 324.929 460.272 329.088 460.157C333.247 460.157 336.713 463.501 336.829 467.651L337.175 492.095Z" fill="#091E1D"/>
<path d="M435.029 473.415C435.145 482.87 427.52 490.595 418.046 490.71L346.88 491.517C337.407 491.633 329.666 484.023 329.551 474.568L321.926 312.92C321.81 303.466 329.435 295.741 338.908 295.625L421.512 294.588C430.986 294.472 438.726 302.082 438.842 311.536L435.029 473.415Z" fill="#322153"/>
<path d="M438.379 327.793L438.726 311.767C438.611 302.313 430.87 294.703 421.397 294.818L338.793 295.856C329.319 295.971 321.694 303.696 321.81 313.151L322.619 329.177L438.379 327.793Z" fill="#1C0C3B"/>
<path d="M452.474 307.732C452.474 310.383 450.395 312.459 447.737 312.574L312.799 314.188C310.141 314.188 308.062 312.113 307.946 309.461L307.715 292.397C307.715 289.745 309.795 287.67 312.452 287.554L447.391 285.94C450.048 285.94 452.128 288.016 452.243 290.667L452.474 307.732Z" fill="#322153"/>
<path d="M380.846 355.119L396.558 345.665L392.745 355.465L380.846 355.119Z" fill="white"/>
<path d="M374.954 340.246C374.954 340.246 376.224 340.246 378.188 343.243C380.152 346.241 384.543 354.312 384.543 354.312L392.514 350.738L394.363 347.625C394.363 347.625 390.897 340.707 388.124 340.246H374.954Z" fill="white"/>
<path d="M370.564 342.321C370.564 342.321 372.99 339.669 374.954 341.053C376.918 342.437 380.384 348.202 380.384 348.202L374.723 358.117L364.556 352.468L370.564 342.321Z" fill="white"/>
<path d="M388.009 367.456L388.817 385.673L382.001 377.718L388.009 367.456Z" fill="white"/>
<path d="M403.951 369.301C403.951 369.301 403.374 370.454 399.792 370.8C396.211 371.146 386.969 371.146 386.969 371.146L386.275 379.908L388.124 383.022C388.124 383.022 395.864 383.367 397.597 381.061L403.951 369.301Z" fill="white"/>
<path d="M404.067 364.458C404.067 364.458 405.338 367.802 403.143 368.955C401.063 369.993 394.247 370.223 394.247 370.223L388.124 360.538L397.944 354.197L404.067 364.458Z" fill="white"/>
<path d="M374.26 367.226L358.085 358.694L368.368 356.849L374.26 367.226Z" fill="white"/>
<path d="M364.556 380.024C364.556 380.024 363.863 378.986 365.365 375.758C366.867 372.529 371.488 364.574 371.488 364.574L364.325 359.616L360.744 359.731C360.744 359.731 356.585 366.303 357.624 368.84L364.556 380.024Z" fill="white"/>
<path d="M368.715 382.56C368.715 382.56 365.134 381.868 365.365 379.562C365.48 377.141 368.715 371.261 368.715 371.261L380.153 370.915L380.615 382.56H368.715Z" fill="white"/>
</g>
<defs>
<linearGradient id="paint0_linear_4_271" x1="370" y1="153.5" x2="868.5" y2="652" gradientUnits="userSpaceOnUse">
<stop stop-color="white"/>
<stop offset="1" stop-color="white" stop-opacity="0"/>
</linearGradient>
<clipPath id="clip0_4_271">
<rect width="878" height="660" fill="white" transform="translate(0.5)"/>
</clipPath>
</defs>
</svg>
