<svg width="65" height="64" viewBox="0 0 65 64" fill="none" xmlns="http://www.w3.org/2000/svg">
<g clip-path="url(#clip0_4_379)">
<mask id="mask0_4_379" style="mask-type:luminance" maskUnits="userSpaceOnUse" x="0" y="0" width="65" height="64">
<path d="M64.5 0H0.5V64H64.5V0Z" fill="white"/>
</mask>
<g mask="url(#mask0_4_379)">
<path d="M11.5 28.0001H20.5V38.0001H11.5V28.0001Z" stroke="#322153" stroke-width="2"/>
<path d="M38.5 14.0001C38.1106 15.5888 34.5 17.3224 34.5 19.143V26.0001H63.5V19.143C63.5 17.3224 59.3894 15.5888 59 14.0001H38.5Z" fill="#96D81C"/>
<path d="M1.53263 38.1936V43.3549C1.53263 44.0721 1.00049 48.5002 8.50041 51.0002L9.00041 54.5002H15.5004H23.0005C23.0005 49.5002 28.5005 49.5002 30.0005 45.5002L30.4359 38.1936H1.53263Z" fill="#96D81C"/>
<path d="M56.7741 12.6265V13.0253L57.1629 13.114C61.0726 14.006 63.9999 17.5051 63.9999 21.6774V26.3387H56.2418H55.7418V26.8387V56.7742C55.7418 60.4824 52.7233 63.5 49.016 63.5C45.3088 63.5 42.2902 60.4824 42.2902 56.7742V26.8387V26.3387H41.7902H34.0322V21.6774C34.0322 17.5051 36.9595 14.006 40.8692 13.114L41.258 13.0253V12.6265V7.22581C41.258 6.10407 41.9808 5.15005 42.9904 4.79L43.3225 4.67159V4.31905V3.09677C43.3225 1.66576 44.4882 0.5 45.9193 0.5H52.1128C53.5438 0.5 54.7096 1.66576 54.7096 3.09677V4.31905V4.67159L55.0416 4.79C56.0513 5.15005 56.7741 6.10407 56.7741 7.22581V12.6265ZM53.1451 4.62903H53.6451V4.12903V3.09677C53.6451 2.2524 52.9588 1.56452 52.1128 1.56452H45.9193C45.0732 1.56452 44.387 2.2524 44.387 3.09677V4.12903V4.62903H44.887H53.1451ZM55.2096 12.8871H55.7096V12.3871V7.22581C55.7096 6.38143 55.0233 5.69355 54.1773 5.69355H43.8547C43.0087 5.69355 42.3225 6.38143 42.3225 7.22581V12.3871V12.8871H42.8225H55.2096ZM43.8547 26.3387H43.3547V26.8387V56.7742C43.3547 59.8961 45.8941 62.4355 49.016 62.4355C52.1379 62.4355 54.6773 59.8961 54.6773 56.7742V26.8387V26.3387H54.1773H52.1128H51.6128V26.8387V56.7742C51.6128 58.2052 50.447 59.371 49.016 59.371C47.585 59.371 46.4193 58.2052 46.4193 56.7742V26.8387V26.3387H45.9193H43.8547ZM47.9838 26.3387H47.4838V26.8387V56.7742C47.4838 57.6186 48.17 58.3064 49.016 58.3064C49.862 58.3064 50.5483 57.6186 50.5483 56.7742V26.8387V26.3387H50.0483H47.9838ZM35.0967 24.7742V25.2742H35.5967H62.4354H62.9354V24.7742V22.7097V20.6452V20.1452H62.7735C62.0603 16.6178 58.9456 13.9516 55.2096 13.9516H42.8225C39.0864 13.9516 35.9717 16.6178 35.2586 20.1452H35.0967V20.6452V22.7097V24.7742Z" fill="#322153" stroke="#322153"/>
<path d="M8.22581 51.5489V51.1076L7.78803 51.0527C3.96762 50.5736 1 47.3023 1 43.3548V37.6613H30.9677V43.3548C30.9677 47.3023 28.0001 50.5736 24.1797 51.0527L23.7419 51.1076V51.5489V56.7742C23.7419 57.8959 23.0191 58.8499 22.0095 59.21L21.6774 59.3284V59.6809V60.9032C21.6774 62.3342 20.5117 63.5 19.0806 63.5H12.8871C11.4561 63.5 10.2903 62.3342 10.2903 60.9032V59.6809V59.3284L9.95826 59.21C8.9486 58.8499 8.22581 57.8959 8.22581 56.7742V51.5489ZM11.8548 59.3709H11.3548V59.8709V60.9032C11.3548 61.7476 12.0411 62.4355 12.8871 62.4355H19.0806C19.9267 62.4355 20.6129 61.7476 20.6129 60.9032V59.8709V59.3709H20.1129H11.8548ZM9.79032 55.2419H9.29032V55.7419V56.7742C9.29032 57.6185 9.97656 58.3064 10.8226 58.3064H21.1452C21.9912 58.3064 22.6774 57.6185 22.6774 56.7742V55.7419V55.2419H22.1774H9.79032ZM29.9032 39.2258V38.7258H29.4032H2.56452H2.06452V39.2258V41.2903V43.3548C2.06452 47.0468 5.06609 50.0484 8.75806 50.0484H9.29032V53.6774V54.1774H9.79032H22.1774H22.6774V53.6774V50.0484H23.2097C26.9016 50.0484 29.9032 47.0468 29.9032 43.3548V41.2903V39.2258Z" fill="#322153" stroke="#322153"/>
<path d="M28.2795 14.4171L27.9141 14.9547L28.5275 15.1699C29.9481 15.6684 30.9677 17.0036 30.9677 18.5807C30.9677 20.1578 29.9481 21.493 28.5275 21.9915L27.9141 22.2067L28.2795 22.7443C28.6732 23.3235 28.9032 24.022 28.9032 24.7743C28.9032 26.7753 27.2753 28.4033 25.2742 28.4033H6.69355C4.69247 28.4033 3.06452 26.7753 3.06452 24.7743C3.06452 24.022 3.29458 23.3235 3.68823 22.7443L4.05364 22.2067L3.44023 21.9915C2.01965 21.493 1 20.1578 1 18.5807C1 17.0036 2.01965 15.6684 3.44023 15.1699L4.05364 14.9547L3.68823 14.4171C3.29458 13.8379 3.06452 13.1394 3.06452 12.3872C3.06452 10.8101 4.08416 9.47483 5.50475 8.9764L6.11816 8.76118L5.75274 8.22354C5.3591 7.64436 5.12903 6.94588 5.12903 6.19361C5.12903 4.19253 6.75699 2.56458 8.75806 2.56458H19.0806C21.0817 2.56458 22.7097 4.19253 22.7097 6.19361C22.7097 6.85025 22.52 7.46336 22.2036 8.0064L21.7656 8.75811H22.6356H25.2742C27.2753 8.75811 28.9032 10.3861 28.9032 12.3872C28.9032 13.1394 28.6732 13.8379 28.2795 14.4171ZM19.0806 3.62909H8.75806C7.34331 3.62909 6.19355 4.77886 6.19355 6.19361C6.19355 7.60836 7.34331 8.75811 8.75806 8.75811H19.0806C20.4954 8.75811 21.6452 7.60836 21.6452 6.19361C21.6452 4.77886 20.4954 3.62909 19.0806 3.62909ZM25.2742 9.82264H6.69355C5.2788 9.82264 4.12903 10.9724 4.12903 12.3872C4.12903 13.8019 5.2788 14.9517 6.69355 14.9517H25.2742C26.6889 14.9517 27.8387 13.8019 27.8387 12.3872C27.8387 10.9724 26.6889 9.82264 25.2742 9.82264ZM6.69355 27.3388H25.2742C26.6889 27.3388 27.8387 26.189 27.8387 24.7743C27.8387 23.3595 26.6889 22.2097 25.2742 22.2097H6.69355C5.2788 22.2097 4.12903 23.3595 4.12903 24.7743C4.12903 26.189 5.2788 27.3388 6.69355 27.3388ZM4.62903 21.1452H27.3387C28.7535 21.1452 29.9032 19.9955 29.9032 18.5807C29.9032 17.166 28.7535 16.0162 27.3387 16.0162H4.62903C3.21428 16.0162 2.06452 17.166 2.06452 18.5807C2.06452 19.9955 3.21428 21.1452 4.62903 21.1452Z" fill="#322153" stroke="#322153"/>
</g>
</g>
<defs>
<clipPath id="clip0_4_379">
<rect width="64" height="64" fill="white" transform="translate(0.5)"/>
</clipPath>
</defs>
</svg>
