<svg width="187" height="44" viewBox="0 0 187 44" fill="none" xmlns="http://www.w3.org/2000/svg">
<g clip-path="url(#clip0_4_418)">
<mask id="mask0_4_418" style="mask-type:luminance" maskUnits="userSpaceOnUse" x="0" y="0" width="187" height="44">
<path d="M187 0H0V44H187V0Z" fill="white"/>
</mask>
<g mask="url(#mask0_4_418)">
<path d="M61 37.176V15H76.3874V19.192H66.1291V23.544H75.2367V27.64H66.1291V32.984H77.1436V37.176H61Z" fill="#96D81C"/>
<path d="M79.4033 28.76C79.4033 27.544 79.6006 26.4027 79.9951 25.336C80.4117 24.248 81.0035 23.3093 81.7707 22.52C82.5378 21.7093 83.4694 21.0693 84.5653 20.6C85.6613 20.1307 86.9107 19.896 88.3137 19.896C89.2342 19.896 90.0785 19.9813 90.845 20.152C91.6126 20.3013 92.3575 20.5253 93.0808 20.824L92.0616 24.632C91.6013 24.4613 91.0978 24.312 90.5491 24.184C90.0015 24.056 89.3877 23.992 88.7082 23.992C87.2615 23.992 86.1765 24.4293 85.4531 25.304C84.7517 26.1787 84.4009 27.3307 84.4009 28.76C84.4009 30.2747 84.7298 31.448 85.3874 32.28C86.0669 33.112 87.2395 33.528 88.9055 33.528C89.4973 33.528 90.133 33.4747 90.8122 33.368C91.4924 33.2613 92.1171 33.0907 92.6863 32.856L93.3767 36.76C92.8075 36.9947 92.0945 37.1973 91.2396 37.368C90.3847 37.5387 89.4424 37.624 88.4123 37.624C86.8341 37.624 85.4751 37.4 84.3353 36.952C83.1954 36.4827 82.2529 35.8533 81.5076 35.064C80.7842 34.2747 80.2473 33.3467 79.8966 32.28C79.5678 31.192 79.4033 30.0187 79.4033 28.76Z" fill="#96D81C"/>
<path d="M112.007 28.728C112.007 30.0507 111.81 31.2667 111.415 32.376C111.02 33.464 110.45 34.4027 109.705 35.192C108.959 35.96 108.061 36.5573 107.009 36.984C105.979 37.4107 104.817 37.624 103.524 37.624C102.252 37.624 101.091 37.4107 100.039 36.984C99.0083 36.5573 98.1205 35.96 97.3756 35.192C96.6297 34.4027 96.0491 33.464 95.633 32.376C95.2159 31.2667 95.0083 30.0507 95.0083 28.728C95.0083 27.4053 95.2159 26.2 95.633 25.112C96.0707 24.024 96.6625 23.096 97.4085 22.328C98.175 21.56 99.074 20.9627 100.105 20.536C101.157 20.1093 102.296 19.896 103.524 19.896C104.773 19.896 105.913 20.1093 106.943 20.536C107.996 20.9627 108.894 21.56 109.64 22.328C110.384 23.096 110.965 24.024 111.382 25.112C111.798 26.2 112.007 27.4053 112.007 28.728ZM107.009 28.728C107.009 27.256 106.702 26.104 106.089 25.272C105.497 24.4187 104.642 23.992 103.524 23.992C102.406 23.992 101.54 24.4187 100.927 25.272C100.312 26.104 100.006 27.256 100.006 28.728C100.006 30.2 100.312 31.3733 100.927 32.248C101.54 33.1013 102.406 33.528 103.524 33.528C104.642 33.528 105.497 33.1013 106.089 32.248C106.702 31.3733 107.009 30.2 107.009 28.728Z" fill="#96D81C"/>
<path d="M15.0442 1.84959L10.3436 10.5861C10.0401 11.1501 10.2399 11.8554 10.7931 12.1725L18.1534 16.3922C18.7143 16.7137 19.4273 16.516 19.7462 15.9504L28.743 0.000610352H18.1247C16.8394 0.000610352 15.6572 0.710139 15.0442 1.84959Z" fill="#96D81C"/>
<path d="M28.7426 0L19.7463 15.95C19.4267 16.5154 18.7142 16.7136 18.1536 16.3923L16.2324 15.2913C16.7008 15.3674 17.1881 15.1503 17.4361 14.7099L25.735 0H28.7426Z" fill="#96D81C"/>
<path d="M38.5866 8.45919L35.3445 1.94898C34.7497 0.75454 33.5377 0.000610352 32.2126 0.000610352H22.8386L30.0359 12.3166C30.0123 12.3273 29.9886 12.338 29.965 12.3487C29.5123 12.5542 29.5308 13.2093 29.9942 13.3888L36.2091 15.796C36.4971 15.9076 36.8203 15.7625 36.9308 15.4721L39.3266 9.1795C39.5037 8.71403 39.0386 8.26488 38.5866 8.45919Z" fill="#96D81C"/>
<path d="M39.3266 9.17899L36.9301 15.4715C36.8201 15.7627 36.4964 15.9079 36.2087 15.7958L34.3282 15.0671L36.57 9.17899C36.6974 8.84506 36.4938 8.51988 36.2018 8.43458C35.9237 8.35326 35.6862 8.16954 35.5563 7.90858L32.5878 1.94875C31.9933 0.754706 30.7817 0 29.4561 0H32.2127C33.5374 0 34.749 0.754706 35.3444 1.94875L38.5863 8.45945C39.0389 8.26524 39.5033 8.71361 39.3266 9.17899Z" fill="#96D81C"/>
<path d="M32.3237 33.5593C32.2363 33.1978 31.774 33.043 31.4918 33.3275L26.6343 38.2268C26.4406 38.4223 26.4406 38.7391 26.6343 38.9345L31.5105 43.8526C31.7908 44.1353 32.2485 43.9844 32.3405 43.6291H39.5113C40.8315 43.6291 42.0397 42.8809 42.6369 41.6934L46.7285 33.5592L32.3237 33.5593Z" fill="#96D81C"/>
<path d="M38.3769 33.5594L40.7019 37.1079C41.2276 37.9101 41.2857 38.9354 40.8543 39.7929L39.898 41.6936C39.3017 42.8807 38.093 43.6293 36.7732 43.6293H39.5111C40.8309 43.6293 42.0395 42.8807 42.637 41.6936L46.7283 33.5596L38.3769 33.5594Z" fill="#96D81C"/>
<path d="M22.5379 42.6939V34.0356C22.5379 33.3849 22.0148 32.8572 21.3695 32.8572H2.12451L7.07719 42.0281C7.69107 43.1649 8.87174 43.8723 10.1551 43.8723H21.3695C22.0147 43.8723 22.5379 43.3448 22.5379 42.6939Z" fill="#96D81C"/>
<path d="M10.2864 32.858L6.01241 40.0573L2.12451 32.858H10.2864Z" fill="#96D81C"/>
<path d="M22.5375 34.0358V42.6944C22.5375 43.345 22.0145 43.8724 21.3696 43.8724H18.3042C18.9493 43.8724 19.4723 43.345 19.4723 42.6944V34.0358C19.4723 33.3852 18.9493 32.8578 18.3042 32.8578H21.3696C22.0145 32.8577 22.5375 33.3852 22.5375 34.0358Z" fill="#96D81C"/>
<path d="M13.1359 25.2066L12.2717 18.6467C12.229 18.3226 11.9339 18.0949 11.6126 18.1379L5.08377 19.0129C4.59212 19.0788 4.4089 19.682 4.74566 20.0176L0.625239 26.0077C-0.130242 27.106 -0.206917 28.54 0.427002 29.7138L4.91086 38.0167L12.1914 25.7507C12.1939 25.7526 12.1964 25.7546 12.1991 25.7566C12.6146 26.0747 13.2046 25.7282 13.1359 25.2066Z" fill="#96D81C"/>
<path d="M12.1987 25.7566C12.1966 25.7545 12.1938 25.7526 12.1917 25.7506L4.91095 38.0163L3.41357 35.2438L9.33952 25.2586L9.50385 24.9816C9.59372 24.8302 9.76932 24.7648 9.94107 24.7984L9.94368 24.7989C10.3091 24.8646 10.6838 24.5576 10.6277 24.1362L9.86854 18.3712L11.612 18.138C11.9336 18.095 12.2293 18.3232 12.272 18.6464L13.1363 25.2072C13.2049 25.7285 12.6144 26.0748 12.1987 25.7566Z" fill="#96D81C"/>
<path d="M48.6979 25.5569L43.0616 17.3197C42.716 16.8144 42.0434 16.6615 41.5162 16.9684L34.171 21.2435C33.588 21.5828 33.4091 22.3475 33.7803 22.9139L44.1349 38.7151L48.9391 29.1643C49.5205 28.0083 49.428 26.6239 48.6979 25.5569Z" fill="#96D81C"/>
<path d="M48.9391 29.1644L44.1342 38.7148L42.5227 36.2546L46.0892 29.1644C46.6706 28.0084 46.5783 26.6241 45.848 25.5571L40.4111 17.6123L41.5165 16.9687C42.0435 16.6614 42.7163 16.8145 43.0616 17.32L48.698 25.5573C49.4282 26.6243 49.5205 28.0084 48.9391 29.1644Z" fill="#96D81C"/>
<path d="M114.431 18.0909H120.091L124.892 29.7983H125.114L129.915 18.0909H135.575V37H131.124V25.3849H130.967L126.425 36.88H123.581L119.038 25.3203H118.881V37H114.431V18.0909ZM142.515 37H137.604L143.983 18.0909H150.068L156.448 37H151.536L147.095 22.8551H146.947L142.515 37ZM141.86 29.5582H152.127V33.0298H141.86V29.5582ZM158.484 37V18.0909H166.295C167.711 18.0909 168.932 18.3679 169.96 18.9219C170.994 19.4697 171.792 20.236 172.352 21.2209C172.912 22.1996 173.192 23.3383 173.192 24.6371C173.192 25.942 172.906 27.0838 172.333 28.0625C171.767 29.035 170.958 29.7891 169.905 30.3246C168.852 30.8601 167.603 31.1278 166.156 31.1278H161.337V27.527H165.307C165.996 27.527 166.572 27.407 167.034 27.1669C167.501 26.9268 167.855 26.5914 168.095 26.1605C168.335 25.7235 168.455 25.2157 168.455 24.6371C168.455 24.0523 168.335 23.5476 168.095 23.1229C167.855 22.692 167.501 22.3596 167.034 22.1257C166.566 21.8918 165.99 21.7749 165.307 21.7749H163.054V37H158.484Z" fill="#96D81C"/>
</g>
<path d="M161.142 3.27273L163.094 9.66477H163.166L165.118 3.27273H167.479L164.534 12H161.726L158.781 3.27273H161.142ZM168.401 12V10.483L171.585 7.69602C171.823 7.48011 172.026 7.28267 172.194 7.10369C172.362 6.92187 172.489 6.74006 172.577 6.55824C172.665 6.37358 172.71 6.1733 172.71 5.95739C172.71 5.71591 172.657 5.50994 172.552 5.33949C172.447 5.16619 172.302 5.03267 172.117 4.93892C171.933 4.84517 171.721 4.7983 171.482 4.7983C171.241 4.7983 171.029 4.84801 170.847 4.94744C170.665 5.04403 170.523 5.18466 170.421 5.36932C170.322 5.55398 170.272 5.77841 170.272 6.04261H168.273C168.273 5.44886 168.407 4.93608 168.674 4.50426C168.941 4.07244 169.316 3.74006 169.799 3.5071C170.285 3.27131 170.849 3.15341 171.491 3.15341C172.153 3.15341 172.728 3.2642 173.217 3.4858C173.705 3.70739 174.083 4.01705 174.35 4.41477C174.62 4.80966 174.755 5.26847 174.755 5.79119C174.755 6.12358 174.688 6.45312 174.555 6.77983C174.421 7.10653 174.181 7.46733 173.835 7.86222C173.491 8.2571 173.002 8.73011 172.369 9.28125L171.325 10.2443V10.2997H174.862V12H168.401Z" fill="#96D81C"/>
</g>
<defs>
<clipPath id="clip0_4_418">
<rect width="187" height="44" fill="white"/>
</clipPath>
</defs>
</svg>
