<svg width="65" height="64" viewBox="0 0 65 64" fill="none" xmlns="http://www.w3.org/2000/svg">
<path d="M58.5 28V48H26.5V28H58.5ZM48 39.4453C48 38.5091 47.5571 37.6089 46.7446 36.8818L42.5 32.5455L38.7554 36.8818C37.9429 37.6089 37.5 38.5091 37.5 39.4453C37.5 41.6634 38.5451 44 41.5481 44H43C44.5018 44 46.0817 43.0089 47.0661 42.2818C48.0505 41.5547 48 40.5546 48 39.4453Z" fill="#96D81C"/>
<path d="M26.3063 22.7097V30.9058C23.6843 30.555 23.3436 28.9033 20.1027 28.9033C16.4898 28.9033 16.4898 30.9678 12.8769 30.9678C9.68684 30.9678 9.31537 29.3574 6.78613 28.9859C6.94137 26.8594 7.30226 24.7536 7.85972 22.7097H26.3063Z" fill="#96D81C"/>
<path d="M26.3065 52.6451V54.7096H6.1875C6.21875 54.6376 6.2495 54.565 6.28075 54.503L7.02369 53.0272C8.15927 50.7354 8.75806 48.2167 8.75806 45.6567C8.75806 44.1804 8.55141 42.7147 8.16986 41.2903H8.15927C8.15927 41.2389 8.13861 41.187 8.12853 41.1356L7.98387 40.6401C7.437 38.7197 7.05494 36.7585 6.74496 33.1043H6.75554C9.31552 33.4763 9.67692 35.0967 12.877 35.0967C16.4899 35.0967 16.4899 33.0322 20.1028 33.0322C23.3438 33.0322 23.6845 34.6839 26.3065 35.0347V52.6451Z" fill="#96D81C"/>
<mask id="mask0_4_442" style="mask-type:luminance" maskUnits="userSpaceOnUse" x="4" y="0" width="57" height="64">
<path d="M57.4807 16.9289L52.1128 12.9032V8.25806H54.1773V3.09677C54.1773 1.38962 52.7877 0 51.0805 0H34.5644C32.8572 0 31.4676 1.38962 31.4676 3.09677V8.25806H33.5321V12.9032L28.1642 16.9289C27.9288 17.1053 27.707 17.2964 27.4974 17.499C26.7937 15.9007 25.9676 14.3558 25.0326 12.8856L23.2096 10.0222V8.25806H25.2741V3.09677C25.2741 1.38962 23.8844 0 22.1773 0H13.9192C12.2121 0 10.8225 1.38962 10.8225 3.09677V8.25806H12.887V10.0222L11.0609 12.8906C7.5286 18.4425 5.66116 24.8558 5.66116 31.4355C5.66116 34.6457 6.10824 37.8382 6.9908 40.9259L7.13193 41.4204C7.52659 42.8004 7.72568 44.2273 7.72568 45.6608C7.72568 48.0444 7.16217 50.4309 6.09564 52.5635L5.35471 54.0469C4.87991 54.9955 4.62891 56.06 4.62891 57.122C4.62891 60.9148 7.71409 64 11.5069 64H12.4596C13.6778 64 14.8214 63.5262 15.6823 62.6653C16.1521 62.1946 16.7776 61.9355 17.4434 61.9355H18.6531C19.3189 61.9355 19.9444 62.1946 20.4152 62.6653C21.2751 63.5262 22.4187 64 23.637 64H24.5896C25.9893 64 27.3325 63.5539 28.4722 62.7697C29.6239 63.5459 31.0095 64 32.4999 64H53.145C57.1294 64 60.3708 60.7576 60.3708 56.7742V22.7097C60.3708 20.4471 59.2902 18.2863 57.4807 16.9289ZM58.3063 24.7742V55.7419H27.3386V53.6774V51.6129V22.7097C27.3386 21.9914 27.4984 21.2903 27.7816 20.6452H57.8623C58.1465 21.2903 58.3063 21.9914 58.3063 22.7097V24.7742ZM7.72568 31.4355C7.72568 31.0625 7.75239 30.692 7.76499 30.3206C8.10975 30.4662 8.42225 30.6426 8.75592 30.8327C9.71459 31.3795 10.8008 31.999 12.8799 31.999C14.9596 31.999 16.0457 31.3785 17.0044 30.8306C17.8461 30.3503 18.5725 29.9355 20.1047 29.9355C21.6385 29.9355 22.3653 30.3503 23.2075 30.8327C23.7771 31.1578 24.4091 31.5146 25.2731 31.748V33.7011C24.9076 33.5514 24.5805 33.3679 24.2302 33.1683C23.2736 32.6205 22.1864 32 20.1047 32C18.0246 32 16.9384 32.6205 15.9797 33.1683C15.1385 33.6497 14.4127 34.0645 12.8799 34.0645C11.3477 34.0645 10.6213 33.6507 9.7776 33.1694C9.21711 32.8498 8.59564 32.5005 7.75441 32.2671C7.74735 31.9899 7.72568 31.7132 7.72568 31.4355ZM33.5321 3.09677C33.5321 2.52823 33.9958 2.06452 34.5644 2.06452H51.0805C51.6491 2.06452 52.1128 2.52823 52.1128 3.09677V6.19355H33.5321V3.09677ZM50.0483 8.25806V12.3871H35.5966V8.25806H50.0483ZM34.9081 14.4516H50.7358L56.2408 18.5806H29.4031L34.9081 14.4516ZM12.887 3.09677C12.887 2.52823 13.3507 2.06452 13.9192 2.06452H22.1773C22.7458 2.06452 23.2096 2.52823 23.2096 3.09677V6.19355H12.887V3.09677ZM12.8033 13.9995L14.9515 10.623V8.25806H21.145V10.624L23.2912 13.9955C24.3845 15.7132 25.3114 17.5444 26.0639 19.4395C25.5538 20.443 25.2741 21.563 25.2741 22.7097V29.5721C24.9086 29.4224 24.5815 29.2389 24.2317 29.0393C23.2736 28.4914 22.1864 27.871 20.1047 27.871C18.0246 27.871 16.9384 28.4914 15.9797 29.0393C15.1385 29.5207 14.4127 29.9355 12.8799 29.9355C11.3487 29.9355 10.6213 29.5207 9.78012 29.0393C9.25441 28.7399 8.67225 28.4138 7.90814 28.1825C8.41318 23.1492 10.0669 18.2989 12.8033 13.9995ZM23.637 61.9355C22.9711 61.9355 22.3456 61.6764 21.8749 61.2056C21.015 60.3448 19.8713 59.871 18.6531 59.871H17.4434C16.2252 59.871 15.0815 60.3448 14.2206 61.2056C13.7509 61.6764 13.1254 61.9355 12.4596 61.9355H11.5069C8.8527 61.9355 6.69342 59.7762 6.69342 57.122C6.69342 56.379 6.86883 55.6346 7.20149 54.9698L7.94241 53.4864C9.15108 51.0701 9.7902 48.3644 9.7902 45.6608C9.7902 44.5388 9.67477 43.4219 9.46106 42.3226L8.94997 40.2581C8.41822 38.376 8.07346 36.4511 7.88999 34.5096C8.18586 34.6436 8.46358 34.7964 8.75592 34.9627C9.71459 35.5086 10.8008 36.129 12.8799 36.129C14.9596 36.129 16.0457 35.5076 17.0044 34.9607C17.8461 34.4793 18.5725 34.0645 20.1047 34.0645C21.6385 34.0645 22.3653 34.4793 23.2075 34.9607C23.7771 35.2868 24.4091 35.6436 25.2731 35.877V56.7742C25.2731 58.5 25.8829 60.0857 26.8965 61.3296C26.1949 61.7167 25.4061 61.9355 24.5896 61.9355H23.637ZM53.145 61.9355H32.4999C30.0079 61.9355 27.9228 60.1588 27.4429 57.8064H58.202C57.7221 60.1588 55.637 61.9355 53.145 61.9355Z" fill="white"/>
</mask>
<g mask="url(#mask0_4_442)">
<path d="M57.4807 16.9289L52.1128 12.9032V8.25806H54.1773V3.09677C54.1773 1.38962 52.7877 0 51.0805 0H34.5644C32.8572 0 31.4676 1.38962 31.4676 3.09677V8.25806H33.5321V12.9032L28.1642 16.9289C27.9288 17.1053 27.707 17.2964 27.4974 17.499C26.7937 15.9007 25.9676 14.3558 25.0326 12.8856L23.2096 10.0222V8.25806H25.2741V3.09677C25.2741 1.38962 23.8844 0 22.1773 0H13.9192C12.2121 0 10.8225 1.38962 10.8225 3.09677V8.25806H12.887V10.0222L11.0609 12.8906C7.5286 18.4425 5.66116 24.8558 5.66116 31.4355C5.66116 34.6457 6.10824 37.8382 6.9908 40.9259L7.13193 41.4204C7.52659 42.8004 7.72568 44.2273 7.72568 45.6608C7.72568 48.0444 7.16217 50.4309 6.09564 52.5635L5.35471 54.0469C4.87991 54.9955 4.62891 56.06 4.62891 57.122C4.62891 60.9148 7.71409 64 11.5069 64H12.4596C13.6778 64 14.8214 63.5262 15.6823 62.6653C16.1521 62.1946 16.7776 61.9355 17.4434 61.9355H18.6531C19.3189 61.9355 19.9444 62.1946 20.4152 62.6653C21.2751 63.5262 22.4187 64 23.637 64H24.5896C25.9893 64 27.3325 63.5539 28.4722 62.7697C29.6239 63.5459 31.0095 64 32.4999 64H53.145C57.1294 64 60.3708 60.7576 60.3708 56.7742V22.7097C60.3708 20.4471 59.2902 18.2863 57.4807 16.9289ZM58.3063 24.7742V55.7419H27.3386V53.6774V51.6129V22.7097C27.3386 21.9914 27.4984 21.2903 27.7816 20.6452H57.8623C58.1465 21.2903 58.3063 21.9914 58.3063 22.7097V24.7742ZM7.72568 31.4355C7.72568 31.0625 7.75239 30.692 7.76499 30.3206C8.10975 30.4662 8.42225 30.6426 8.75592 30.8327C9.71459 31.3795 10.8008 31.999 12.8799 31.999C14.9596 31.999 16.0457 31.3785 17.0044 30.8306C17.8461 30.3503 18.5725 29.9355 20.1047 29.9355C21.6385 29.9355 22.3653 30.3503 23.2075 30.8327C23.7771 31.1578 24.4091 31.5146 25.2731 31.748V33.7011C24.9076 33.5514 24.5805 33.3679 24.2302 33.1683C23.2736 32.6205 22.1864 32 20.1047 32C18.0246 32 16.9384 32.6205 15.9797 33.1683C15.1385 33.6497 14.4127 34.0645 12.8799 34.0645C11.3477 34.0645 10.6213 33.6507 9.7776 33.1694C9.21711 32.8498 8.59564 32.5005 7.75441 32.2671C7.74735 31.9899 7.72568 31.7132 7.72568 31.4355ZM33.5321 3.09677C33.5321 2.52823 33.9958 2.06452 34.5644 2.06452H51.0805C51.6491 2.06452 52.1128 2.52823 52.1128 3.09677V6.19355H33.5321V3.09677ZM50.0483 8.25806V12.3871H35.5966V8.25806H50.0483ZM34.9081 14.4516H50.7358L56.2408 18.5806H29.4031L34.9081 14.4516ZM12.887 3.09677C12.887 2.52823 13.3507 2.06452 13.9192 2.06452H22.1773C22.7458 2.06452 23.2096 2.52823 23.2096 3.09677V6.19355H12.887V3.09677ZM12.8033 13.9995L14.9515 10.623V8.25806H21.145V10.624L23.2912 13.9955C24.3845 15.7132 25.3114 17.5444 26.0639 19.4395C25.5538 20.443 25.2741 21.563 25.2741 22.7097V29.5721C24.9086 29.4224 24.5815 29.2389 24.2317 29.0393C23.2736 28.4914 22.1864 27.871 20.1047 27.871C18.0246 27.871 16.9384 28.4914 15.9797 29.0393C15.1385 29.5207 14.4127 29.9355 12.8799 29.9355C11.3487 29.9355 10.6213 29.5207 9.78012 29.0393C9.25441 28.7399 8.67225 28.4138 7.90814 28.1825C8.41318 23.1492 10.0669 18.2989 12.8033 13.9995ZM23.637 61.9355C22.9711 61.9355 22.3456 61.6764 21.8749 61.2056C21.015 60.3448 19.8713 59.871 18.6531 59.871H17.4434C16.2252 59.871 15.0815 60.3448 14.2206 61.2056C13.7509 61.6764 13.1254 61.9355 12.4596 61.9355H11.5069C8.8527 61.9355 6.69342 59.7762 6.69342 57.122C6.69342 56.379 6.86883 55.6346 7.20149 54.9698L7.94241 53.4864C9.15108 51.0701 9.7902 48.3644 9.7902 45.6608C9.7902 44.5388 9.67477 43.4219 9.46106 42.3226L8.94997 40.2581C8.41822 38.376 8.07346 36.4511 7.88999 34.5096C8.18586 34.6436 8.46358 34.7964 8.75592 34.9627C9.71459 35.5086 10.8008 36.129 12.8799 36.129C14.9596 36.129 16.0457 35.5076 17.0044 34.9607C17.8461 34.4793 18.5725 34.0645 20.1047 34.0645C21.6385 34.0645 22.3653 34.4793 23.2075 34.9607C23.7771 35.2868 24.4091 35.6436 25.2731 35.877V56.7742C25.2731 58.5 25.8829 60.0857 26.8965 61.3296C26.1949 61.7167 25.4061 61.9355 24.5896 61.9355H23.637ZM53.145 61.9355H32.4999C30.0079 61.9355 27.9228 60.1588 27.4429 57.8064H58.202C57.7221 60.1588 55.637 61.9355 53.145 61.9355Z" fill="#322153" stroke="#322153" stroke-width="2"/>
</g>
<path d="M43.2066 33.2925L42.8225 32.8314L42.4383 33.2924L39.1242 37.2693C39.1243 37.2692 39.1241 37.2694 39.1242 37.2693C38.5233 37.9892 38.1934 38.9029 38.1934 39.8403C38.1934 42.0552 39.9946 43.8549 42.209 43.8549H43.4369C45.6504 43.8549 47.4515 42.0551 47.4515 39.8403C47.4515 38.9028 47.122 37.9893 46.5197 37.2693C46.5198 37.2694 46.5196 37.2692 46.5197 37.2693L43.2066 33.2925ZM43.4359 44.9194H42.208C39.4081 44.9194 37.1289 42.6403 37.1289 39.8403C37.1289 38.6544 37.5471 37.499 38.3053 36.5884C38.3052 36.5885 38.3054 36.5883 38.3053 36.5884L42.8224 31.1687L47.3383 36.587C47.3383 36.5869 47.3383 36.5871 47.3383 36.587C48.0979 37.4999 48.516 38.6545 48.516 39.8403C48.516 42.6402 46.2369 44.9194 43.4359 44.9194Z" fill="#322153"/>
<path d="M39.1242 37.2693L42.4383 33.2924L42.8225 32.8314L43.2066 33.2925L46.5197 37.2693M39.1242 37.2693C39.1241 37.2694 39.1243 37.2692 39.1242 37.2693ZM39.1242 37.2693C38.5233 37.9892 38.1934 38.9029 38.1934 39.8403C38.1934 42.0552 39.9946 43.8549 42.209 43.8549H43.4369C45.6504 43.8549 47.4515 42.0551 47.4515 39.8403C47.4515 38.9028 47.122 37.9893 46.5197 37.2693M46.5197 37.2693C46.5196 37.2692 46.5198 37.2694 46.5197 37.2693ZM38.3053 36.5884C37.5471 37.499 37.1289 38.6544 37.1289 39.8403C37.1289 42.6403 39.4081 44.9194 42.208 44.9194H43.4359C46.2369 44.9194 48.516 42.6402 48.516 39.8403C48.516 38.6545 48.0979 37.4999 47.3383 36.587M38.3053 36.5884C38.3054 36.5883 38.3052 36.5885 38.3053 36.5884ZM38.3053 36.5884L42.8224 31.1687L47.3383 36.587M47.3383 36.587C47.3383 36.5871 47.3383 36.5869 47.3383 36.587Z" stroke="#322153"/>
</svg>
