<svg width="65" height="64" viewBox="0 0 65 64" fill="none" xmlns="http://www.w3.org/2000/svg">
<path d="M11.5 44V27H22.5C22.2373 27.1641 21.9629 27.3041 21.6885 27.4333C19.6246 28.4166 18.205 30.3718 17.7518 32.5727L16.2721 39.8788L16.2838 40.0897C14.1843 40.6048 12.4187 42.0329 11.5117 44H11.5Z" fill="#96D81C"/>
<path d="M44.4091 2.5625L49.0152 2L56.5 16.0625V18.3125L54.7727 20H38.6515L37.5 17.75L38.0758 13.8125L44.4091 2.5625Z" fill="#96D81C"/>
<path fill-rule="evenodd" clip-rule="evenodd" d="M53.1663 49.4727C57.598 49.4727 61.2033 53.0125 61.2033 57.3636V60.7455V63H3.79605L3.7959 60.7455V57.3636C3.7959 54.1981 5.70873 51.4691 8.4552 50.2119L10.4078 43.8226C10.4626 43.6461 10.534 43.4798 10.6056 43.3131C10.6323 43.2511 10.6589 43.189 10.6848 43.1263V25.205C10.6848 23.0561 11.9008 21.1241 13.8585 20.1636L15.2774 19.4668V16.7818H12.9811V13.4C12.9811 11.5357 14.5267 10.0182 16.4255 10.0182H23.3144C25.2132 10.0182 26.7589 11.5357 26.7589 13.4V16.7818H24.4626V19.4668L25.8826 20.1636C26.9495 20.6865 27.7943 21.5254 28.3527 22.5442C28.7614 22.471 29.1813 22.4182 29.627 22.4182C30.7151 22.4182 31.6845 22.6626 32.5708 23.1624C33.2553 22.8453 34.3631 22.4182 35.3722 22.4182C37.8843 22.4182 39.7943 23.7226 41.4806 24.8742L41.483 24.8758C42.1002 25.2975 42.6961 25.6806 43.3005 26.0185L46.2774 24.0695V21.2909H41.9556C39.2736 21.2909 37.0922 19.1492 37.0922 16.516C37.0922 15.7784 37.2699 15.0403 37.6052 14.3809L43.0751 3.63984C43.9043 2.01113 45.571 1 47.4255 1C49.2801 1 50.9468 2.01113 51.7759 3.63874L57.2459 14.3798C57.5811 15.0403 57.7589 15.7784 57.7589 16.516C57.7589 19.1492 55.5775 21.2909 52.8955 21.2909H48.5737V24.0695L54.9507 28.245L53.677 30.1208L48.5737 26.7798V29.7058L54.9507 33.8814L53.677 35.7572L48.5737 32.4161V35.3422L54.9507 39.5177L53.677 41.3936L48.5737 38.0525V40.9785L54.9507 45.153L53.677 47.0288L48.5737 43.6877V47.3084C50.2993 47.5517 51.8494 48.3295 53.0401 49.4727H53.1663ZM39.6593 15.3887C39.4827 15.7371 39.3885 16.1268 39.3885 16.516C39.3885 17.9058 40.54 19.0364 41.9556 19.0364H52.8955C54.3111 19.0364 55.4626 17.9058 55.4626 16.516C55.4626 16.1268 55.3695 15.7371 55.1918 15.3887L49.7218 4.64767C49.4679 4.14954 49.0569 3.77965 48.5737 3.54077H46.2774C45.7941 3.77965 45.3832 4.14954 45.1292 4.64767L39.6593 15.3887ZM53.1663 56.1224V55.1091C53.1663 52.3867 51.1901 50.1096 48.5737 49.5867V50.6C48.5737 53.3213 50.5499 55.5995 53.1663 56.1224ZM41.6848 56.1224C44.3012 55.5995 46.2774 53.3224 46.2774 50.6V49.5867C43.661 50.1096 41.6848 52.3867 41.6848 55.1091V56.1224ZM16.4255 12.2727C15.7931 12.2727 15.2774 12.7791 15.2774 13.4V14.5273H24.4626V13.4C24.4626 12.7791 23.9468 12.2727 23.3144 12.2727H16.4255ZM17.5737 20.8605L14.8849 22.1804C13.7099 22.7561 12.9811 23.9153 12.9811 25.205V40.0252C13.6942 39.4434 14.5004 38.9799 15.3839 38.6701L16.7277 32.0754C17.2429 29.5495 18.8894 27.4028 21.133 26.3356C21.9403 25.9508 22.7061 25.4279 23.5162 24.8747C24.3224 24.3243 25.1824 23.7414 26.1321 23.2807C25.8058 22.8205 25.3764 22.4363 24.855 22.1804L22.1663 20.8605V16.7818H17.5737V20.8605ZM11.8329 51.7273C8.66768 51.7273 6.09219 54.2559 6.09219 57.3636V60.7455H58.907V57.3636C58.907 54.8185 57.1685 52.6878 54.8044 51.9898C55.226 52.947 55.4626 54.0011 55.4626 55.1091V58.4909H54.3144C51.3891 58.4909 48.8321 56.9431 47.4255 54.6434C46.0189 56.9431 43.462 58.4909 40.5366 58.4909H39.3885V55.1091C39.3885 51.1422 42.3884 47.8583 46.2774 47.3084V43.6877L41.1729 47.0277L39.8992 45.1519L46.2774 40.9774V38.0514L41.1729 41.3914L39.8992 39.5155L46.2774 35.3411V32.415L41.1729 35.755L39.8992 33.8792L46.2774 29.7047V26.7787L41.1729 30.1197L39.8992 28.2439L41.1886 27.4006C40.8444 27.1777 40.5024 26.952 40.1717 26.7253C38.6261 25.669 37.1656 24.6727 35.3722 24.6727C34.6927 24.6727 33.6018 25.145 33.0737 25.4417L32.4194 25.811L31.8128 25.3685C31.1575 24.8868 30.4836 24.6727 29.627 24.6727C27.8336 24.6727 26.3732 25.669 24.8275 26.7242C23.9804 27.3038 23.1031 27.9026 22.1343 28.3633C21.1333 28.8398 20.3001 29.6249 19.7222 30.5955L19.721 30.5976C19.7151 30.6075 19.7093 30.6173 19.7035 30.6272C19.7055 30.6279 19.7076 30.6286 19.7096 30.6292L18.9454 32.752C18.9406 32.7505 18.9358 32.749 18.9309 32.7475L17.8159 38.2226C17.8607 38.2211 17.9044 38.2163 17.948 38.2115C18.0003 38.2057 18.0525 38.2 18.1063 38.2H30.2033V40.4545H18.1063C15.5515 40.4545 13.3416 42.0689 12.6077 44.471L11.0683 49.5113C11.3211 49.4876 11.5745 49.4727 11.8329 49.4727H23.3144V51.7273H11.8329Z" fill="#322153"/>
<mask id="mask0_4_451" style="mask-type:luminance" maskUnits="userSpaceOnUse" x="3" y="1" width="59" height="62">
<path fill-rule="evenodd" clip-rule="evenodd" d="M53.1663 49.4727C57.598 49.4727 61.2033 53.0125 61.2033 57.3636V60.7455V63H3.79605L3.7959 60.7455V57.3636C3.7959 54.1981 5.70873 51.4691 8.4552 50.2119L10.4078 43.8226C10.4626 43.6461 10.534 43.4798 10.6056 43.3131C10.6323 43.2511 10.6589 43.189 10.6848 43.1263V25.205C10.6848 23.0561 11.9008 21.1241 13.8585 20.1636L15.2774 19.4668V16.7818H12.9811V13.4C12.9811 11.5357 14.5267 10.0182 16.4255 10.0182H23.3144C25.2132 10.0182 26.7589 11.5357 26.7589 13.4V16.7818H24.4626V19.4668L25.8826 20.1636C26.9495 20.6865 27.7943 21.5254 28.3527 22.5442C28.7614 22.471 29.1813 22.4182 29.627 22.4182C30.7151 22.4182 31.6845 22.6626 32.5708 23.1624C33.2553 22.8453 34.3631 22.4182 35.3722 22.4182C37.8843 22.4182 39.7943 23.7226 41.4806 24.8742L41.483 24.8758C42.1002 25.2975 42.6961 25.6806 43.3005 26.0185L46.2774 24.0695V21.2909H41.9556C39.2736 21.2909 37.0922 19.1492 37.0922 16.516C37.0922 15.7784 37.2699 15.0403 37.6052 14.3809L43.0751 3.63984C43.9043 2.01113 45.571 1 47.4255 1C49.2801 1 50.9468 2.01113 51.7759 3.63874L57.2459 14.3798C57.5811 15.0403 57.7589 15.7784 57.7589 16.516C57.7589 19.1492 55.5775 21.2909 52.8955 21.2909H48.5737V24.0695L54.9507 28.245L53.677 30.1208L48.5737 26.7798V29.7058L54.9507 33.8814L53.677 35.7572L48.5737 32.4161V35.3422L54.9507 39.5177L53.677 41.3936L48.5737 38.0525V40.9785L54.9507 45.153L53.677 47.0288L48.5737 43.6877V47.3084C50.2993 47.5517 51.8494 48.3295 53.0401 49.4727H53.1663ZM39.6593 15.3887C39.4827 15.7371 39.3885 16.1268 39.3885 16.516C39.3885 17.9058 40.54 19.0364 41.9556 19.0364H52.8955C54.3111 19.0364 55.4626 17.9058 55.4626 16.516C55.4626 16.1268 55.3695 15.7371 55.1918 15.3887L49.7218 4.64767C49.4679 4.14954 49.0569 3.77965 48.5737 3.54077H46.2774C45.7941 3.77965 45.3832 4.14954 45.1292 4.64767L39.6593 15.3887ZM53.1663 56.1224V55.1091C53.1663 52.3867 51.1901 50.1096 48.5737 49.5867V50.6C48.5737 53.3213 50.5499 55.5995 53.1663 56.1224ZM41.6848 56.1224C44.3012 55.5995 46.2774 53.3224 46.2774 50.6V49.5867C43.661 50.1096 41.6848 52.3867 41.6848 55.1091V56.1224ZM16.4255 12.2727C15.7931 12.2727 15.2774 12.7791 15.2774 13.4V14.5273H24.4626V13.4C24.4626 12.7791 23.9468 12.2727 23.3144 12.2727H16.4255ZM17.5737 20.8605L14.8849 22.1804C13.7099 22.7561 12.9811 23.9153 12.9811 25.205V40.0252C13.6942 39.4434 14.5004 38.9799 15.3839 38.6701L16.7277 32.0754C17.2429 29.5495 18.8894 27.4028 21.133 26.3356C21.9403 25.9508 22.7061 25.4279 23.5162 24.8747C24.3224 24.3243 25.1824 23.7414 26.1321 23.2807C25.8058 22.8205 25.3764 22.4363 24.855 22.1804L22.1663 20.8605V16.7818H17.5737V20.8605ZM11.8329 51.7273C8.66768 51.7273 6.09219 54.2559 6.09219 57.3636V60.7455H58.907V57.3636C58.907 54.8185 57.1685 52.6878 54.8044 51.9898C55.226 52.947 55.4626 54.0011 55.4626 55.1091V58.4909H54.3144C51.3891 58.4909 48.8321 56.9431 47.4255 54.6434C46.0189 56.9431 43.462 58.4909 40.5366 58.4909H39.3885V55.1091C39.3885 51.1422 42.3884 47.8583 46.2774 47.3084V43.6877L41.1729 47.0277L39.8992 45.1519L46.2774 40.9774V38.0514L41.1729 41.3914L39.8992 39.5155L46.2774 35.3411V32.415L41.1729 35.755L39.8992 33.8792L46.2774 29.7047V26.7787L41.1729 30.1197L39.8992 28.2439L41.1886 27.4006C40.8444 27.1777 40.5024 26.952 40.1717 26.7253C38.6261 25.669 37.1656 24.6727 35.3722 24.6727C34.6927 24.6727 33.6018 25.145 33.0737 25.4417L32.4194 25.811L31.8128 25.3685C31.1575 24.8868 30.4836 24.6727 29.627 24.6727C27.8336 24.6727 26.3732 25.669 24.8275 26.7242C23.9804 27.3038 23.1031 27.9026 22.1343 28.3633C21.1333 28.8398 20.3001 29.6249 19.7222 30.5955L19.721 30.5976C19.7151 30.6075 19.7093 30.6173 19.7035 30.6272C19.7055 30.6279 19.7076 30.6286 19.7096 30.6292L18.9454 32.752C18.9406 32.7505 18.9358 32.749 18.9309 32.7475L17.8159 38.2226C17.8607 38.2211 17.9044 38.2163 17.948 38.2115C18.0003 38.2057 18.0525 38.2 18.1063 38.2H30.2033V40.4545H18.1063C15.5515 40.4545 13.3416 42.0689 12.6077 44.471L11.0683 49.5113C11.3211 49.4876 11.5745 49.4727 11.8329 49.4727H23.3144V51.7273H11.8329Z" fill="white"/>
</mask>
<g mask="url(#mask0_4_451)">
<path d="M61.2033 63V64H62.2033V63H61.2033ZM3.79605 63L2.79605 63.0001L2.79612 64H3.79605V63ZM8.4552 50.2119L8.87141 51.1212L9.28016 50.9341L9.41154 50.5042L8.4552 50.2119ZM10.4078 43.8226L9.45273 43.5263L9.4515 43.5303L10.4078 43.8226ZM10.6848 43.1263L11.6093 43.5075L11.6848 43.3244V43.1263H10.6848ZM15.2774 19.4668L15.7182 20.3644L16.2774 20.0898V19.4668H15.2774ZM15.2774 16.7818H16.2774V15.7818H15.2774V16.7818ZM12.9811 16.7818H11.9811V17.7818H12.9811V16.7818ZM26.7589 16.7818V17.7818H27.7589V16.7818H26.7589ZM24.4626 16.7818V15.7818H23.4626V16.7818H24.4626ZM24.4626 19.4668H23.4626V20.09L24.022 20.3645L24.4626 19.4668ZM28.3527 22.5442L27.4758 23.0248L27.8213 23.6553L28.529 23.5286L28.3527 22.5442ZM32.5708 23.1624L32.0796 24.0334L32.526 24.2851L32.9911 24.0698L32.5708 23.1624ZM43.3005 26.0185L42.8124 26.8913L43.3413 27.1871L43.8483 26.8551L43.3005 26.0185ZM46.2774 24.0695L46.8251 24.9061L47.2774 24.61V24.0695H46.2774ZM46.2774 21.2909H47.2774V20.2909H46.2774V21.2909ZM57.2459 14.3798L58.1376 13.9272L58.137 13.926L57.2459 14.3798ZM48.5737 21.2909V20.2909H47.5737V21.2909H48.5737ZM48.5737 24.0695H47.5737V24.61L48.0259 24.9061L48.5737 24.0695ZM54.9507 28.245L55.778 28.8067L56.3493 27.9654L55.4985 27.4084L54.9507 28.245ZM53.677 30.1208L53.1292 30.9575L53.9519 31.4961L54.5043 30.6826L53.677 30.1208ZM48.5737 26.7798L49.1214 25.9431L47.5737 24.9298V26.7798H48.5737ZM48.5737 29.7058H47.5737V30.2463L48.0259 30.5424L48.5737 29.7058ZM54.9507 33.8814L55.778 34.4431L56.3493 33.6018L55.4985 33.0447L54.9507 33.8814ZM53.677 35.7572L53.1292 36.5939L53.9519 37.1325L54.5043 36.319L53.677 35.7572ZM48.5737 32.4161L49.1214 31.5795L47.5737 30.5662V32.4161H48.5737ZM48.5737 35.3422H47.5737V35.8827L48.0259 36.1788L48.5737 35.3422ZM54.9507 39.5177L55.778 40.0795L56.3493 39.2382L55.4985 38.6811L54.9507 39.5177ZM53.677 41.3936L53.1292 42.2302L53.9519 42.7688L54.5043 41.9553L53.677 41.3936ZM48.5737 38.0525L49.1214 37.2158L47.5737 36.2025V38.0525H48.5737ZM48.5737 40.9785H47.5737V41.5191L48.026 41.8152L48.5737 40.9785ZM54.9507 45.153L55.778 45.7147L56.3494 44.8733L55.4984 44.3163L54.9507 45.153ZM53.677 47.0288L53.1292 47.8655L53.9519 48.4041L54.5043 47.5906L53.677 47.0288ZM48.5737 43.6877L49.1214 42.8511L47.5737 41.8378V43.6877H48.5737ZM48.5737 47.3084H47.5737V48.1773L48.4341 48.2987L48.5737 47.3084ZM53.0401 49.4727L52.3476 50.1941L52.6378 50.4727H53.0401V49.4727ZM39.6593 15.3887L38.7682 14.9349L38.7673 14.9366L39.6593 15.3887ZM48.5737 3.54077L49.0168 2.64431L48.8073 2.54077H48.5737V3.54077ZM46.2774 3.54077V2.54077H46.0437L45.8342 2.64431L46.2774 3.54077ZM53.1663 56.1224L52.9703 57.103L54.1663 57.3421V56.1224H53.1663ZM48.5737 49.5867L48.7697 48.6061L47.5737 48.367V49.5867H48.5737ZM41.6848 56.1224H40.6848V57.3421L41.8808 57.103L41.6848 56.1224ZM46.2774 49.5867H47.2774V48.367L46.0814 48.6061L46.2774 49.5867ZM15.2774 14.5273H14.2774V15.5273H15.2774V14.5273ZM24.4626 14.5273V15.5273H25.4626V14.5273H24.4626ZM17.5737 20.8605L18.0143 21.7581L18.5737 21.4836V20.8605H17.5737ZM12.9811 40.0252H11.9811V42.1317L13.6132 40.8L12.9811 40.0252ZM15.3839 38.6701L15.7149 39.6137L16.2504 39.4259L16.3638 38.8697L15.3839 38.6701ZM26.1321 23.2807L26.5686 24.1804L27.6306 23.6652L26.9478 22.7023L26.1321 23.2807ZM22.1663 20.8605H21.1663V21.4836L21.7256 21.7581L22.1663 20.8605ZM22.1663 16.7818H23.1663V15.7818H22.1663V16.7818ZM17.5737 16.7818V15.7818H16.5737V16.7818H17.5737ZM6.09219 60.7455H5.09219V61.7455H6.09219V60.7455ZM58.907 60.7455V61.7455H59.907V60.7455H58.907ZM54.8044 51.9898L55.0875 51.0307L53.0205 50.4205L53.8892 52.3929L54.8044 51.9898ZM55.4626 58.4909V59.4909H56.4626V58.4909H55.4626ZM47.4255 54.6434L48.2786 54.1216L47.4255 52.7269L46.5725 54.1216L47.4255 54.6434ZM39.3885 58.4909H38.3885V59.4909H39.3885V58.4909ZM46.2774 47.3084L46.4174 48.2986L47.2774 48.177V47.3084H46.2774ZM46.2774 43.6877H47.2774V41.8384L45.7298 42.851L46.2774 43.6877ZM41.1729 47.0277L40.3456 47.5895L40.8979 48.4028L41.7205 47.8645L41.1729 47.0277ZM39.8992 45.1519L39.3516 44.3152L38.5005 44.8722L39.0719 45.7136L39.8992 45.1519ZM46.2774 40.9774L46.825 41.8142L47.2774 41.5181V40.9774H46.2774ZM46.2774 38.0514H47.2774V36.202L45.7299 37.2146L46.2774 38.0514ZM41.1729 41.3914L40.3456 41.9531L40.8979 42.7664L41.7205 42.2282L41.1729 41.3914ZM39.8992 39.5155L39.3516 38.6788L38.5005 39.2358L39.0719 40.0773L39.8992 39.5155ZM46.2774 35.3411L46.825 36.1778L47.2774 35.8817V35.3411H46.2774ZM46.2774 32.415H47.2774V30.5656L45.7299 31.5782L46.2774 32.415ZM41.1729 35.755L40.3456 36.3168L40.8979 37.13L41.7205 36.5918L41.1729 35.755ZM39.8992 33.8792L39.3516 33.0424L38.5005 33.5994L39.0719 34.4409L39.8992 33.8792ZM46.2774 29.7047L46.825 30.5414L47.2774 30.2454V29.7047H46.2774ZM46.2774 26.7787H47.2774V24.9289L45.7297 25.942L46.2774 26.7787ZM41.1729 30.1197L40.3456 30.6815L40.898 31.4949L41.7206 30.9564L41.1729 30.1197ZM39.8992 28.2439L39.3519 27.407L38.5003 27.9639L39.0719 28.8056L39.8992 28.2439ZM41.1886 27.4006L41.736 28.2376L43.022 27.3965L41.7322 26.5613L41.1886 27.4006ZM40.1717 26.7253L40.7372 25.9005L40.7359 25.8996L40.1717 26.7253ZM33.0737 25.4417L32.5839 24.5698L32.5821 24.5709L33.0737 25.4417ZM32.4194 25.811L31.8301 26.6189L32.3503 26.9984L32.911 26.6818L32.4194 25.811ZM31.8128 25.3685L31.2207 26.1743L31.2235 26.1763L31.8128 25.3685ZM24.8275 26.7242L24.2637 25.8983L24.2628 25.8989L24.8275 26.7242ZM19.7222 30.5955L19.3688 31.531L20.1528 31.8271L20.5815 31.1071L19.7222 30.5955ZM19.7222 30.5955L20.0752 29.6599L19.1249 29.3009L18.7809 30.2567L19.7222 30.5955ZM19.721 30.5976L20.5804 31.1088L20.6294 31.0265L20.6619 30.9363L19.721 30.5976ZM19.7035 30.6272L18.8412 30.1208L18.2109 31.1941L19.3947 31.5784L19.7035 30.6272ZM19.7096 30.6292L20.6505 30.9679L20.9997 29.998L20.0196 29.6785L19.7096 30.6292ZM18.9454 32.752L18.6466 33.7063L19.5616 33.9928L19.8863 33.0907L18.9454 32.752ZM18.9309 32.7475L19.2258 31.792L18.1713 31.4665L17.9511 32.5479L18.9309 32.7475ZM17.8159 38.2226L16.836 38.023L16.5831 39.2644L17.8493 39.222L17.8159 38.2226ZM30.2033 38.2H31.2033V37.2H30.2033V38.2ZM30.2033 40.4545V41.4545H31.2033V40.4545H30.2033ZM11.0683 49.5113L10.1119 49.2191L9.67607 50.646L11.1615 50.5069L11.0683 49.5113ZM23.3144 49.4727H24.3144V48.4727H23.3144V49.4727ZM23.3144 51.7273V52.7273H24.3144V51.7273H23.3144ZM62.2033 57.3636C62.2033 52.443 58.1329 48.4727 53.1663 48.4727V50.4727C57.0631 50.4727 60.2033 53.582 60.2033 57.3636H62.2033ZM62.2033 60.7455V57.3636H60.2033V60.7455H62.2033ZM62.2033 63V60.7455H60.2033V63H62.2033ZM3.79605 64H61.2033V62H3.79605V64ZM2.7959 60.7455L2.79605 63.0001L4.79605 62.9999L4.7959 60.7454L2.7959 60.7455ZM2.7959 57.3636V60.7455L4.7959 60.7454V57.3636H2.7959ZM8.039 49.3027C4.96045 50.7119 2.7959 53.7816 2.7959 57.3636H4.7959C4.7959 54.6146 6.45702 52.2264 8.87141 51.1212L8.039 49.3027ZM9.4515 43.5303L7.49887 49.9197L9.41154 50.5042L11.3642 44.1149L9.4515 43.5303ZM9.68682 42.9184C9.61838 43.0777 9.52556 43.2915 9.45273 43.5263L11.3629 44.1189C11.3996 44.0006 11.4497 43.8819 11.5244 43.7078L9.68682 42.9184ZM9.76027 42.7452C9.73769 42.7999 9.71394 42.8553 9.68682 42.9184L11.5244 43.7078C11.5506 43.6469 11.5802 43.5781 11.6093 43.5075L9.76027 42.7452ZM9.68479 25.205V43.1263H11.6848V25.205H9.68479ZM13.418 19.2659C11.1242 20.3913 9.68479 22.6676 9.68479 25.205H11.6848C11.6848 23.4446 12.6774 21.857 14.2989 21.0614L13.418 19.2659ZM14.8366 18.5692L13.418 19.2659L14.2989 21.0614L15.7182 20.3644L14.8366 18.5692ZM14.2774 16.7818V19.4668H16.2774V16.7818H14.2774ZM12.9811 17.7818H15.2774V15.7818H12.9811V17.7818ZM11.9811 13.4V16.7818H13.9811V13.4H11.9811ZM16.4255 9.01818C13.9918 9.01818 11.9811 10.9662 11.9811 13.4H13.9811C13.9811 12.1052 15.0616 11.0182 16.4255 11.0182V9.01818ZM23.3144 9.01818H16.4255V11.0182H23.3144V9.01818ZM27.7589 13.4C27.7589 10.9662 25.7481 9.01818 23.3144 9.01818V11.0182C24.6783 11.0182 25.7589 12.1052 25.7589 13.4H27.7589ZM27.7589 16.7818V13.4H25.7589V16.7818H27.7589ZM24.4626 17.7818H26.7589V15.7818H24.4626V17.7818ZM25.4626 19.4668V16.7818H23.4626V19.4668H25.4626ZM26.3231 19.2659L24.9031 18.5691L24.022 20.3645L25.4421 21.0614L26.3231 19.2659ZM29.2296 22.0636C28.5777 20.8741 27.5853 19.8845 26.3231 19.2659L25.4421 21.0614C26.3136 21.4886 27.0109 22.1766 27.4758 23.0248L29.2296 22.0636ZM29.627 21.4182C29.1021 21.4182 28.6194 21.4805 28.1764 21.5599L28.529 23.5286C28.9034 23.4615 29.2605 23.4182 29.627 23.4182V21.4182ZM33.062 22.2913C32.0148 21.7008 30.8742 21.4182 29.627 21.4182V23.4182C30.5561 23.4182 31.3541 23.6243 32.0796 24.0334L33.062 22.2913ZM35.3722 21.4182C34.1337 21.4182 32.8594 21.9266 32.1505 22.255L32.9911 24.0698C33.6513 23.764 34.5925 23.4182 35.3722 23.4182V21.4182ZM42.0449 24.0487C40.3879 22.9171 38.2352 21.4182 35.3722 21.4182V23.4182C37.5333 23.4182 39.2009 24.5283 40.9166 25.7L42.0449 24.0487ZM42.0473 24.0503L42.0449 24.0487L40.9166 25.7L40.9186 25.7014L42.0473 24.0503ZM43.7886 25.1457C43.2198 24.8277 42.6511 24.4627 42.0473 24.0503L40.9186 25.7014C41.5493 26.1322 42.1725 26.5334 42.8124 26.8913L43.7886 25.1457ZM45.7296 23.2328L42.7527 25.1819L43.8483 26.8551L46.8251 24.9061L45.7296 23.2328ZM45.2774 21.2909V24.0695H47.2774V21.2909H45.2774ZM41.9556 22.2909H46.2774V20.2909H41.9556V22.2909ZM36.0922 16.516C36.0922 19.7187 38.7387 22.2909 41.9556 22.2909V20.2909C39.8085 20.2909 38.0922 18.5797 38.0922 16.516H36.0922ZM36.7141 13.9271C36.3079 14.726 36.0922 15.6199 36.0922 16.516H38.0922C38.0922 15.9369 38.2323 15.354 38.4966 14.8341L36.7141 13.9271ZM42.184 3.18604L36.7141 13.9271L38.4966 14.8341L43.9662 4.09365L42.184 3.18604ZM47.4255 0C45.202 0 43.187 1.21576 42.184 3.18604L43.9662 4.09365C44.6215 2.80652 45.94 2 47.4255 2V0ZM52.667 3.18494C51.6639 1.21589 49.6489 0 47.4255 0V2C48.9112 2 50.2297 2.80649 50.8849 4.09267L52.667 3.18494ZM58.137 13.926L52.667 3.18494L50.8849 4.09267L56.3548 14.8336L58.137 13.926ZM58.7589 16.516C58.7589 15.6198 58.5434 14.7267 58.1376 13.9272L56.3542 14.8324C56.6189 15.3538 56.7589 15.937 56.7589 16.516H58.7589ZM52.8955 22.2909C56.1124 22.2909 58.7589 19.7187 58.7589 16.516H56.7589C56.7589 18.5797 55.0426 20.2909 52.8955 20.2909V22.2909ZM48.5737 22.2909H52.8955V20.2909H48.5737V22.2909ZM49.5737 24.0695V21.2909H47.5737V24.0695H49.5737ZM55.4985 27.4084L49.1215 23.2328L48.0259 24.9061L54.4029 29.0816L55.4985 27.4084ZM54.5043 30.6826L55.778 28.8067L54.1234 27.6832L52.8497 29.5591L54.5043 30.6826ZM48.0259 27.6164L53.1292 30.9575L54.2247 29.2842L49.1214 25.9431L48.0259 27.6164ZM49.5737 29.7058V26.7798H47.5737V29.7058H49.5737ZM55.4985 33.0447L49.1215 28.8692L48.0259 30.5424L54.4029 34.718L55.4985 33.0447ZM54.5043 36.319L55.778 34.4431L54.1234 33.3196L52.8497 35.1955L54.5043 36.319ZM48.0259 33.2528L53.1292 36.5939L54.2247 34.9206L49.1214 31.5795L48.0259 33.2528ZM49.5737 35.3422V32.4161H47.5737V35.3422H49.5737ZM55.4985 38.6811L49.1215 34.5056L48.0259 36.1788L54.4029 40.3543L55.4985 38.6811ZM54.5043 41.9553L55.778 40.0795L54.1234 38.956L52.8497 40.8318L54.5043 41.9553ZM48.0259 38.8891L53.1292 42.2302L54.2247 40.5569L49.1214 37.2158L48.0259 38.8891ZM49.5737 40.9785V38.0525H47.5737V40.9785H49.5737ZM55.4984 44.3163L49.1214 40.1419L48.026 41.8152L54.403 45.9897L55.4984 44.3163ZM54.5043 47.5906L55.778 45.7147L54.1234 44.5912L52.8497 46.4671L54.5043 47.5906ZM48.0259 44.5244L53.1292 47.8655L54.2247 46.1922L49.1214 42.8511L48.0259 44.5244ZM49.5737 47.3084V43.6877H47.5737V47.3084H49.5737ZM53.7327 48.7514C52.3927 47.4649 50.65 46.5913 48.7133 46.3182L48.4341 48.2987C49.9486 48.5122 51.306 49.1941 52.3476 50.1941L53.7327 48.7514ZM53.1663 48.4727H53.0401V50.4727H53.1663V48.4727ZM40.3885 16.516C40.3885 16.286 40.4447 16.051 40.5512 15.8408L38.7673 14.9366C38.5206 15.4232 38.3885 15.9676 38.3885 16.516H40.3885ZM41.9556 18.0364C41.0749 18.0364 40.3885 17.3363 40.3885 16.516H38.3885C38.3885 18.4753 40.0051 20.0364 41.9556 20.0364V18.0364ZM52.8955 18.0364H41.9556V20.0364H52.8955V18.0364ZM54.4626 16.516C54.4626 17.3363 53.7761 18.0364 52.8955 18.0364V20.0364C54.846 20.0364 56.4626 18.4753 56.4626 16.516H54.4626ZM54.3007 15.8425C54.4064 16.0497 54.4626 16.2842 54.4626 16.516H56.4626C56.4626 15.9694 56.3323 15.424 56.0826 14.9343L54.3007 15.8425ZM48.8307 5.10148L54.3007 15.8425L56.0826 14.9343L50.6129 4.19387L48.8307 5.10148ZM48.1305 4.43722C48.448 4.59414 48.6874 4.82045 48.8307 5.10148L50.6129 4.19387C50.2483 3.47862 49.6659 2.96516 49.0168 2.64431L48.1305 4.43722ZM46.2774 4.54077H48.5737V2.54077H46.2774V4.54077ZM46.0201 5.10187C46.1634 4.82084 46.4031 4.59414 46.7205 4.43722L45.8342 2.64431C45.1852 2.96516 44.603 3.47823 44.2383 4.19348L46.0201 5.10187ZM40.5504 15.8425L46.0201 5.10187L44.2383 4.19348L38.7682 14.9349L40.5504 15.8425ZM52.1663 55.1091V56.1224H54.1663V55.1091H52.1663ZM48.3777 50.5673C50.5491 51.0012 52.1663 52.886 52.1663 55.1091H54.1663C54.1663 51.8874 51.8311 49.2179 48.7697 48.6061L48.3777 50.5673ZM49.5737 50.6V49.5867H47.5737V50.6H49.5737ZM53.3622 55.1418C51.191 54.7079 49.5737 52.8222 49.5737 50.6H47.5737C47.5737 53.8205 49.9087 56.4912 52.9703 57.103L53.3622 55.1418ZM45.2774 50.6C45.2774 52.8231 43.6602 54.7079 41.4888 55.1418L41.8808 57.103C44.9422 56.4912 47.2774 53.8217 47.2774 50.6H45.2774ZM45.2774 49.5867V50.6H47.2774V49.5867H45.2774ZM42.6848 55.1091C42.6848 52.886 44.302 51.0012 46.4734 50.5673L46.0814 48.6061C43.02 49.2179 40.6848 51.8874 40.6848 55.1091H42.6848ZM42.6848 56.1224V55.1091H40.6848V56.1224H42.6848ZM16.2774 13.4C16.2774 13.3486 16.3281 13.2727 16.4255 13.2727V11.2727C15.2582 11.2727 14.2774 12.2096 14.2774 13.4H16.2774ZM16.2774 14.5273V13.4H14.2774V14.5273H16.2774ZM24.4626 13.5273H15.2774V15.5273H24.4626V13.5273ZM23.4626 13.4V14.5273H25.4626V13.4H23.4626ZM23.3144 13.2727C23.4119 13.2727 23.4626 13.3486 23.4626 13.4H25.4626C25.4626 12.2096 24.4817 11.2727 23.3144 11.2727V13.2727ZM16.4255 13.2727H23.3144V11.2727H16.4255V13.2727ZM15.3249 23.0784L18.0143 21.7581L17.133 19.9628L14.4443 21.2827L15.3249 23.0784ZM13.9811 25.205C13.9811 24.3034 14.4869 23.489 15.3249 23.0784L14.4443 21.2827C12.9322 22.0236 11.9811 23.5273 11.9811 25.205H13.9811ZM13.9811 40.0252V25.205H11.9811V40.0252H13.9811ZM15.0529 37.7264C14.054 38.0768 13.1468 38.5994 12.3489 39.2504L13.6132 40.8C14.2416 40.2874 14.9468 39.8831 15.7149 39.6137L15.0529 37.7264ZM15.7479 31.8756L14.404 38.4704L16.3638 38.8697L17.7076 32.2751L15.7479 31.8756ZM20.7035 25.4325C18.1636 26.6408 16.323 29.0558 15.7479 31.8756L17.7076 32.2751C18.1629 30.043 19.6153 28.1649 21.5626 27.2386L20.7035 25.4325ZM22.9524 24.0489C22.1289 24.6113 21.4284 25.0871 20.7035 25.4325L21.5626 27.2386C22.4523 26.8146 23.2835 26.2446 24.0802 25.7006L22.9524 24.0489ZM25.6956 22.381C24.6701 22.8785 23.7527 23.5024 22.9524 24.0489L24.0802 25.7006C24.8922 25.1462 25.6947 24.6043 26.5686 24.1804L25.6956 22.381ZM24.4143 23.0781C24.773 23.2542 25.0778 23.5227 25.3163 23.8591L26.9478 22.7023C26.5338 22.1184 25.9797 21.6185 25.2957 21.2827L24.4143 23.0781ZM21.7256 21.7581L24.4143 23.0781L25.2957 21.2827L22.6069 19.9628L21.7256 21.7581ZM21.1663 16.7818V20.8605H23.1663V16.7818H21.1663ZM17.5737 17.7818H22.1663V15.7818H17.5737V17.7818ZM18.5737 20.8605V16.7818H16.5737V20.8605H18.5737ZM7.09219 57.3636C7.09219 54.8254 9.20259 52.7273 11.8329 52.7273V50.7273C8.13277 50.7273 5.09219 53.6864 5.09219 57.3636H7.09219ZM7.09219 60.7455V57.3636H5.09219V60.7455H7.09219ZM58.907 59.7455H6.09219V61.7455H58.907V59.7455ZM57.907 57.3636V60.7455H59.907V57.3636H57.907ZM54.5213 52.9489C56.4919 53.5307 57.907 55.2938 57.907 57.3636H59.907C59.907 54.3431 57.8452 51.8449 55.0875 51.0307L54.5213 52.9489ZM56.4626 55.1091C56.4626 53.8572 56.195 52.6662 55.7196 51.5868L53.8892 52.3929C54.257 53.2278 54.4626 54.145 54.4626 55.1091H56.4626ZM56.4626 58.4909V55.1091H54.4626V58.4909H56.4626ZM54.3144 59.4909H55.4626V57.4909H54.3144V59.4909ZM46.5725 55.1652C48.1543 57.7514 51.0287 59.4909 54.3144 59.4909V57.4909C51.7495 57.4909 49.51 56.1348 48.2786 54.1216L46.5725 55.1652ZM40.5366 59.4909C43.8224 59.4909 46.6968 57.7514 48.2786 55.1652L46.5725 54.1216C45.3411 56.1348 43.1015 57.4909 40.5366 57.4909V59.4909ZM39.3885 59.4909H40.5366V57.4909H39.3885V59.4909ZM38.3885 55.1091V58.4909H40.3885V55.1091H38.3885ZM46.1374 46.3183C41.7785 46.9346 38.3885 50.6207 38.3885 55.1091H40.3885C40.3885 51.6636 42.9983 48.782 46.4174 48.2986L46.1374 46.3183ZM45.2774 43.6877V47.3084H47.2774V43.6877H45.2774ZM41.7205 47.8645L46.8249 44.5245L45.7298 42.851L40.6254 46.191L41.7205 47.8645ZM39.0719 45.7136L40.3456 47.5895L42.0003 46.466L40.7265 44.5901L39.0719 45.7136ZM45.7298 40.1407L39.3516 44.3152L40.4468 45.9886L46.825 41.8142L45.7298 40.1407ZM45.2774 38.0514V40.9774H47.2774V38.0514H45.2774ZM41.7205 42.2282L46.8249 38.8882L45.7299 37.2146L40.6254 40.5546L41.7205 42.2282ZM39.0719 40.0773L40.3456 41.9531L42.0002 40.8296L40.7265 38.9538L39.0719 40.0773ZM45.7298 34.5044L39.3516 38.6788L40.4468 40.3522L46.825 36.1778L45.7298 34.5044ZM45.2774 32.415V35.3411H47.2774V32.415H45.2774ZM41.7205 36.5918L46.8249 33.2518L45.7299 31.5782L40.6254 34.9182L41.7205 36.5918ZM39.0719 34.4409L40.3456 36.3168L42.0002 35.1933L40.7265 33.3174L39.0719 34.4409ZM45.7298 28.868L39.3516 33.0424L40.4468 34.7159L46.825 30.5414L45.7298 28.868ZM45.2774 26.7787V29.7047H47.2774V26.7787H45.2774ZM41.7206 30.9564L46.825 27.6154L45.7297 25.942L40.6253 29.283L41.7206 30.9564ZM39.0719 28.8056L40.3456 30.6815L42.0002 29.558L40.7265 27.6821L39.0719 28.8056ZM40.6413 26.5637L39.3519 27.407L40.4465 29.0808L41.736 28.2376L40.6413 26.5637ZM39.6062 27.55C39.9466 27.7834 40.2964 28.0142 40.6451 28.24L41.7322 26.5613C41.3925 26.3413 41.0583 26.1207 40.7372 25.9005L39.6062 27.55ZM35.3722 25.6727C36.804 25.6727 38.0081 26.4579 39.6075 27.5509L40.7359 25.8996C39.244 24.8801 37.5272 23.6727 35.3722 23.6727V25.6727ZM33.5635 26.3135C33.7799 26.1919 34.1358 26.022 34.51 25.885C34.9085 25.739 35.215 25.6727 35.3722 25.6727V23.6727C34.85 23.6727 34.2712 23.8425 33.8223 24.0069C33.3492 24.1802 32.8955 24.3947 32.5839 24.5698L33.5635 26.3135ZM32.911 26.6818L33.5653 26.3125L32.5821 24.5709L31.9278 24.9402L32.911 26.6818ZM31.2235 26.1763L31.8301 26.6189L33.0088 25.0031L32.4022 24.5606L31.2235 26.1763ZM29.627 25.6727C30.2832 25.6727 30.7468 25.8261 31.2207 26.1743L32.405 24.5627C31.5681 23.9476 30.6841 23.6727 29.627 23.6727V25.6727ZM25.3913 27.5501C26.9911 26.458 28.195 25.6727 29.627 25.6727V23.6727C27.4721 23.6727 25.7552 24.88 24.2637 25.8983L25.3913 27.5501ZM22.5638 29.2664C23.6142 28.7668 24.5541 28.1229 25.3922 27.5495L24.2628 25.8989C23.4068 26.4846 22.5919 27.0384 21.7048 27.4603L22.5638 29.2664ZM20.5815 31.1071C21.0653 30.2944 21.7539 29.6519 22.5638 29.2664L21.7048 27.4603C20.5126 28.0277 19.5349 28.9554 18.863 30.084L20.5815 31.1071ZM20.6619 30.9363L20.6627 30.934L18.7809 30.2567L18.7801 30.2589L20.6619 30.9363ZM20.5658 31.1336C20.5707 31.1253 20.5756 31.117 20.5804 31.1088L18.8616 30.0863C18.8547 30.0979 18.8479 30.1094 18.8412 30.1208L20.5658 31.1336ZM20.0196 29.6785C20.0174 29.6778 20.0149 29.677 20.0122 29.6761L19.3947 31.5784C19.3962 31.5788 19.3977 31.5794 19.3996 31.58L20.0196 29.6785ZM19.8863 33.0907L20.6505 30.9679L18.7687 30.2905L18.0045 32.4133L19.8863 33.0907ZM18.636 33.703C18.6396 33.7041 18.6431 33.7052 18.6466 33.7063L19.2442 31.7977C19.2381 31.7957 19.232 31.7938 19.2258 31.792L18.636 33.703ZM18.7957 38.4221L19.9108 32.947L17.9511 32.5479L16.836 38.023L18.7957 38.4221ZM17.8388 37.2175C17.8154 37.22 17.8032 37.2213 17.7924 37.2223C17.7828 37.2232 17.7804 37.2232 17.7824 37.2231L17.8493 39.222C17.9383 39.219 18.0194 39.2097 18.0573 39.2055L17.8388 37.2175ZM18.1063 37.2C17.9889 37.2 17.8829 37.2126 17.8388 37.2175L18.0573 39.2055C18.071 39.204 18.0805 39.2029 18.0895 39.202C18.0982 39.2011 18.104 39.2006 18.1081 39.2003C18.1165 39.1996 18.1144 39.2 18.1063 39.2V37.2ZM30.2033 37.2H18.1063V39.2H30.2033V37.2ZM31.2033 40.4545V38.2H29.2033V40.4545H31.2033ZM18.1063 41.4545H30.2033V39.4545H18.1063V41.4545ZM13.5641 44.7632C14.1664 42.7916 15.9808 41.4545 18.1063 41.4545V39.4545C15.1222 39.4545 12.5167 41.3463 11.6513 44.1788L13.5641 44.7632ZM12.0246 49.8034L13.5641 44.7632L11.6513 44.1788L10.1119 49.2191L12.0246 49.8034ZM11.8329 48.4727C11.5362 48.4727 11.2508 48.4898 10.975 48.5156L11.1615 50.5069C11.3914 50.4854 11.6128 50.4727 11.8329 50.4727V48.4727ZM23.3144 48.4727H11.8329V50.4727H23.3144V48.4727ZM24.3144 51.7273V49.4727H22.3144V51.7273H24.3144ZM11.8329 52.7273H23.3144V50.7273H11.8329V52.7273Z" fill="#322153"/>
</g>
</svg>
